{"glyphs":{"0":{"ha":1221,"x_min":0,"x_max":1085,"o":"m 543 0 q 159 159 318 0 q 0 543 0 318 q 159 926 0 767 q 543 1085 318 1085 q 926 926 767 1085 q 1085 543 1085 767 q 926 159 1085 318 q 543 0 767 0 m 543 271 q 734 351 655 271 q 814 543 814 430 q 734 734 814 655 q 543 814 655 814 q 351 734 430 814 q 271 543 271 655 q 351 351 271 430 q 543 271 430 271 z "},"1":{"ha":543,"x_min":0,"x_max":407,"o":"m 271 1085 q 367 1045 328 1085 q 407 949 407 1006 l 407 136 q 367 40 407 79 q 271 0 328 0 q 175 40 215 0 q 136 136 136 79 l 136 814 q 40 853 79 814 q 0 949 0 893 q 40 1045 0 1006 q 136 1085 79 1085 l 271 1085 z "},"2":{"ha":916,"x_min":0,"x_max":780,"o":"m 491 610 q 509 677 509 640 q 469 773 509 734 q 373 813 429 813 q 277 774 317 813 q 232 718 250 736 q 136 677 192 677 q 40 717 79 677 q 0 813 0 757 q 28 895 0 860 q 85 966 47 927 q 373 1084 204 1084 q 661 965 542 1084 q 780 677 780 846 q 713 475 780 525 l 712 475 l 500 271 l 644 271 q 740 232 701 271 q 780 136 780 192 q 740 40 780 79 q 644 0 701 0 l 136 0 q 40 40 79 0 q 0 136 0 79 q 40 232 0 192 q 68 254 53 245 l 68 254 l 491 610 z "},"3":{"ha":916,"x_min":0,"x_max":780,"o":"m 373 678 l 441 678 q 489 698 469 678 q 509 746 509 718 q 489 794 509 774 q 441 814 469 814 l 373 814 q 277 774 317 814 l 231 718 q 136 678 192 678 q 40 718 79 678 q 0 814 0 758 q 32 902 0 865 q 85 966 54 935 q 373 1085 204 1085 l 441 1085 q 681 986 581 1085 q 780 746 780 886 q 713 543 780 630 q 780 339 780 455 q 681 99 780 199 q 441 0 581 0 l 373 0 q 85 119 204 0 q 32 183 54 150 q 0 271 0 220 q 40 367 0 328 q 136 407 79 407 q 231 368 192 407 l 277 311 q 373 271 317 271 l 441 271 q 489 291 469 271 q 509 339 509 311 q 489 387 509 367 q 441 407 469 407 l 373 407 q 277 447 317 407 q 237 543 237 486 q 277 638 237 599 q 373 678 317 678 z "},"4":{"ha":949,"x_min":0,"x_max":814,"o":"m 814 136 q 774 40 814 79 q 678 0 734 0 q 582 40 622 0 q 543 136 543 79 l 543 203 l 136 203 q 40 243 79 203 q 0 339 0 283 q 18 407 0 376 l 17 407 l 424 1017 l 425 1017 q 446 1046 433 1032 q 543 1085 486 1085 l 712 1085 l 712 1081 q 774 1046 747 1073 q 814 949 814 1006 l 814 136 m 543 691 l 394 475 l 543 475 l 543 691 z "},"5":{"ha":882,"x_min":0,"x_max":746,"o":"m 300 313 q 311 292 300 313 q 373 271 322 271 q 445 301 415 271 q 475 373 475 331 q 445 445 475 415 q 373 475 415 475 l 0 475 l 136 1085 l 610 1085 q 706 1045 667 1085 q 746 949 746 1006 q 706 853 746 893 q 610 814 667 814 l 339 814 l 325 743 q 373 746 349 746 q 637 637 528 746 q 746 373 746 528 q 637 109 746 218 q 373 0 528 0 q 109 109 218 0 q 28 234 45 180 q 17 288 17 259 q 57 384 17 345 q 153 424 96 424 q 249 385 209 424 q 300 313 278 355 z "},"6":{"ha":949,"x_min":0,"x_max":814,"o":"m 407 543 q 311 503 351 543 q 271 407 271 463 q 311 311 271 351 q 407 271 351 271 q 503 311 463 271 q 543 407 543 351 q 503 503 543 463 q 407 543 463 543 m 507 802 q 695 695 612 777 q 814 407 814 576 q 695 119 814 238 q 407 0 576 0 q 119 119 238 0 q 0 407 0 238 q 20 554 0 500 q 51 627 39 608 l 322 1017 l 323 1017 q 345 1045 332 1032 q 441 1085 385 1085 q 537 1045 497 1085 q 576 949 576 1006 q 559 882 576 912 l 559 882 l 507 802 z "},"7":{"ha":949,"x_min":0,"x_max":814,"o":"m 678 1085 q 774 1045 734 1085 q 814 949 814 1006 q 797 865 814 893 l 254 68 l 254 68 q 232 40 245 53 q 136 0 192 0 q 40 40 79 0 q 0 136 0 79 q 18 203 0 173 l 17 203 l 424 814 l 136 814 q 40 853 79 814 q 0 949 0 893 q 40 1045 0 1006 q 136 1085 79 1085 l 678 1085 z "},"8":{"ha":882,"x_min":0,"x_max":746,"o":"m 445 301 q 460 316 445 301 q 475 373 475 331 q 445 445 475 415 q 373 475 415 475 q 301 445 331 475 q 271 373 271 415 q 301 301 271 331 q 373 271 331 271 q 445 301 415 271 m 397 756 q 402 761 397 756 q 407 780 407 766 q 397 804 407 794 q 373 814 387 814 q 349 804 359 814 q 339 780 339 794 q 349 756 339 766 q 373 746 359 746 q 397 756 387 746 m 641 633 q 746 373 746 525 q 637 109 746 218 q 373 0 528 0 q 109 109 218 0 q 0 373 0 218 q 105 633 0 525 q 68 780 68 699 q 157 996 68 906 q 373 1085 247 1085 q 589 996 499 1085 q 678 780 678 906 q 641 633 678 699 z "},"9":{"ha":949,"x_min":0,"x_max":814,"o":"m 407 543 q 503 582 463 543 q 543 678 543 622 q 503 774 543 734 q 407 814 463 814 q 311 774 351 814 q 271 678 271 734 q 311 582 271 622 q 407 543 351 543 m 307 283 q 119 391 201 308 q 0 678 0 509 q 119 966 0 847 q 407 1085 238 1085 q 695 966 576 1085 q 814 678 814 847 q 794 531 814 585 q 763 458 774 477 l 492 68 l 491 68 q 469 40 482 53 q 373 0 429 0 q 277 40 317 0 q 237 136 237 79 q 255 203 237 173 l 254 203 l 307 283 z "}," ":{"ha":949,"x_min":0,"x_max":0,"o":""}," ":{"ha":949,"x_min":0,"x_max":0,"o":""},"!":{"ha":407,"x_min":0,"x_max":271,"o":"m 271 543 q 232 447 271 486 q 136 407 192 407 q 40 447 79 407 q 0 543 0 486 l 0 949 q 40 1045 0 1006 q 136 1085 79 1085 q 232 1045 192 1085 q 271 949 271 1006 l 271 543 m 136 271 q 232 232 192 271 q 271 136 271 192 q 232 40 271 79 q 136 0 192 0 q 40 40 79 0 q 0 136 0 79 q 40 232 0 192 q 136 271 79 271 z "},"\"":{"ha":814,"x_min":0,"x_max":678,"o":"m 0 949 q 40 1045 0 1006 q 136 1085 79 1085 q 232 1045 192 1085 q 271 949 271 1006 l 271 678 q 232 582 271 622 q 136 543 192 543 q 40 582 79 543 q 0 678 0 622 l 0 949 m 407 949 q 447 1045 407 1006 q 543 1085 486 1085 q 638 1045 599 1085 q 678 949 678 1006 l 678 678 q 638 582 678 622 q 543 543 599 543 q 447 582 486 543 q 407 678 407 622 l 407 949 z "},"#":{"ha":1221,"x_min":0,"x_max":1085,"o":"m 475 610 l 475 475 l 610 475 l 610 610 l 475 610 m 475 203 l 475 136 q 435 40 475 79 q 339 0 395 0 q 243 40 283 0 q 203 136 203 79 l 203 203 l 136 203 q 40 243 79 203 q 0 339 0 283 q 40 435 0 395 q 136 475 79 475 l 203 475 l 203 610 l 136 610 q 40 650 79 610 q 0 746 0 690 q 40 842 0 802 q 136 882 79 882 l 203 882 l 203 949 q 243 1045 203 1006 q 339 1085 283 1085 q 435 1045 395 1085 q 475 949 475 1006 l 475 882 l 610 882 l 610 949 q 650 1045 610 1006 q 746 1085 690 1085 q 842 1045 802 1085 q 882 949 882 1006 l 882 882 l 949 882 q 1045 842 1006 882 q 1085 746 1085 802 q 1045 650 1085 690 q 949 610 1006 610 l 882 610 l 882 475 l 949 475 q 1045 435 1006 475 q 1085 339 1085 395 q 1045 243 1085 283 q 949 203 1006 203 l 882 203 l 882 136 q 842 40 882 79 q 746 0 802 0 q 650 40 690 0 q 610 136 610 79 l 610 203 l 475 203 z "},"$":{"ha":916,"x_min":0,"x_max":780,"o":"m 237 68 q 58 125 136 68 q 50 132 54 129 q 22 157 35 144 q 24 161 22 159 q 0 237 0 194 q 40 333 0 294 q 136 373 79 373 q 203 356 168 373 q 305 339 237 339 l 475 339 q 499 349 489 339 q 509 373 509 359 q 499 397 509 387 q 475 407 489 407 l 305 407 q 90 496 179 407 q 0 712 0 586 q 90 928 0 838 q 271 1017 167 1005 q 311 1113 271 1074 q 407 1153 351 1153 q 503 1113 463 1153 q 543 1017 543 1074 q 722 960 644 1017 q 730 953 726 956 q 758 928 745 941 q 755 927 756 927 q 780 848 780 892 q 740 752 780 791 q 644 712 701 712 q 576 729 610 712 q 475 746 543 746 l 305 746 q 281 736 291 746 q 271 712 271 726 q 281 688 271 698 q 305 678 291 678 l 475 678 q 690 589 601 678 q 780 373 780 499 q 690 157 780 247 q 543 68 626 93 q 503 -28 543 12 q 407 -68 463 -68 q 311 -28 351 -68 q 271 68 271 12 l 237 68 z "},"%":{"ha":1085,"x_min":0,"x_max":949,"o":"m 313 545 q 271 543 292 543 q 79 622 159 543 q 0 814 0 701 q 79 1006 0 926 q 271 1085 159 1085 q 463 1006 384 1085 q 535 879 518 951 l 627 1017 l 628 1017 q 650 1046 637 1032 q 746 1085 690 1085 q 842 1045 802 1085 q 882 949 882 1006 q 865 865 882 893 l 644 541 q 678 543 661 543 q 870 463 791 543 q 949 271 949 384 q 870 79 949 159 q 678 0 791 0 q 486 79 566 0 q 415 204 432 134 l 322 68 l 321 68 q 300 40 313 53 q 203 0 260 0 q 107 40 147 0 q 68 136 68 79 q 85 203 68 173 l 85 203 l 313 545 z "},"&":{"ha":916,"x_min":0,"x_max":780,"o":"m 407 271 q 503 311 463 271 l 549 368 q 644 407 588 407 q 740 367 701 407 q 780 271 780 328 q 748 183 780 220 q 695 119 726 150 q 543 22 627 51 l 543 0 q 503 -96 543 -56 q 407 -136 463 -136 q 311 -96 351 -136 q 271 0 271 -56 l 271 6 q 100 100 174 25 q 0 339 0 199 q 67 543 0 455 q 0 746 0 630 q 100 986 0 886 q 271 1079 174 1060 l 271 1085 q 311 1181 271 1141 q 407 1221 351 1221 q 503 1181 463 1221 q 543 1085 543 1141 l 543 949 q 503 853 543 893 q 407 814 463 814 l 339 814 q 291 794 311 814 q 271 746 271 774 q 291 698 271 718 q 339 678 311 678 l 407 678 q 503 638 463 678 q 543 543 543 599 q 503 447 543 486 q 407 407 463 407 l 339 407 q 291 387 311 407 q 271 339 271 367 q 291 291 271 311 q 339 271 311 271 l 407 271 z "},"'":{"ha":407,"x_min":0,"x_max":271,"o":"m 0 949 q 40 1045 0 1006 q 136 1085 79 1085 q 232 1045 192 1085 q 271 949 271 1006 l 271 678 q 232 582 271 622 q 136 543 192 543 q 40 582 79 543 q 0 678 0 622 l 0 949 z "},"(":{"ha":916,"x_min":0,"x_max":543,"o":"m 407 -237 q 119 -118 238 -237 q 0 170 0 1 l 0 983 q 119 1271 0 1152 q 407 1390 238 1390 q 503 1351 463 1390 q 543 1255 543 1311 q 503 1159 543 1198 q 407 1119 463 1119 q 311 1079 351 1119 q 271 983 271 1040 l 271 170 q 311 74 271 113 q 407 34 351 34 q 503 -6 463 34 q 543 -102 543 -45 q 503 -198 543 -158 q 407 -237 463 -237 z "},")":{"ha":916,"x_min":0,"x_max":543,"o":"m 136 -237 q 40 -198 79 -237 q 0 -102 0 -158 q 40 -6 0 -45 q 136 34 79 34 q 232 74 192 34 q 271 170 271 113 l 271 983 q 232 1079 271 1040 q 136 1119 192 1119 q 40 1159 79 1119 q 0 1255 0 1198 q 40 1351 0 1311 q 136 1390 79 1390 q 424 1271 304 1390 q 543 983 543 1152 l 543 170 q 424 -118 543 1 q 136 -237 304 -237 z "},"*":{"ha":949,"x_min":0,"x_max":814,"o":"m 138 949 l 108 989 q 68 1085 68 1029 q 107 1181 68 1141 q 203 1221 147 1221 q 300 1181 260 1221 l 407 1027 l 515 1181 q 610 1221 554 1221 q 706 1181 667 1221 q 746 1085 746 1141 q 707 989 746 1029 l 677 949 l 678 949 q 774 910 734 949 q 814 814 814 870 q 774 718 814 758 q 678 678 734 678 l 677 678 l 707 639 q 746 543 746 599 q 706 447 746 486 q 610 407 667 407 q 515 447 554 407 l 407 600 l 300 447 q 203 407 260 407 q 107 447 147 407 q 68 543 68 486 q 108 639 68 599 l 137 678 l 136 678 q 40 718 79 678 q 0 814 0 758 q 40 910 0 870 q 136 949 79 949 l 138 949 z "},"+":{"ha":814,"x_min":0,"x_max":678,"o":"m 475 678 l 543 678 q 638 638 599 678 q 678 543 678 599 q 638 447 678 486 q 543 407 599 407 l 475 407 l 475 339 q 435 243 475 283 q 339 203 395 203 q 243 243 283 203 q 203 339 203 283 l 203 407 l 136 407 q 40 447 79 407 q 0 543 0 486 q 40 638 0 599 q 136 678 79 678 l 203 678 l 203 746 q 243 842 203 802 q 339 882 283 882 q 435 842 395 882 q 475 746 475 802 l 475 678 z "},",":{"ha":407,"x_min":0,"x_max":271,"o":"m 0 136 q 40 232 0 192 q 136 271 79 271 q 232 232 192 271 q 271 136 271 192 l 271 -136 q 232 -232 271 -192 q 136 -271 192 -271 q 40 -232 79 -271 q 0 -136 0 -192 l 0 136 z "},"-":{"ha":814,"x_min":0,"x_max":678,"o":"m 543 678 q 638 638 599 678 q 678 543 678 599 q 638 447 678 486 q 543 407 599 407 l 136 407 q 40 447 79 407 q 0 543 0 486 q 40 638 0 599 q 136 678 79 678 l 543 678 z "},"­":{"ha":814,"x_min":0,"x_max":678,"o":"m 543 678 q 638 638 599 678 q 678 543 678 599 q 638 447 678 486 q 543 407 599 407 l 136 407 q 40 447 79 407 q 0 543 0 486 q 40 638 0 599 q 136 678 79 678 l 543 678 z "},".":{"ha":407,"x_min":0,"x_max":271,"o":"m 136 0 q 40 40 79 0 q 0 136 0 79 q 40 232 0 192 q 136 271 79 271 q 232 232 192 271 q 271 136 271 192 q 232 40 271 79 q 136 0 192 0 z "},"/":{"ha":949,"x_min":0,"x_max":814,"o":"m 17 203 l 559 1017 l 560 1017 q 582 1046 569 1032 q 678 1085 622 1085 q 774 1045 734 1085 q 814 949 814 1006 q 797 865 814 893 l 254 68 l 254 68 q 232 40 245 53 q 136 0 192 0 q 40 40 79 0 q 0 136 0 79 q 18 203 0 173 l 17 203 z "},":":{"ha":407,"x_min":0,"x_max":271,"o":"m 136 407 q 40 447 79 407 q 0 543 0 486 q 40 638 0 599 q 136 678 79 678 q 232 638 192 678 q 271 543 271 599 q 232 447 271 486 q 136 407 192 407 m 136 0 q 40 40 79 0 q 0 136 0 79 q 40 232 0 192 q 136 271 79 271 q 232 232 192 271 q 271 136 271 192 q 232 40 271 79 q 136 0 192 0 z "},";":{"ha":407,"x_min":0,"x_max":271,"o":"m 0 136 q 40 232 0 192 q 136 271 79 271 q 232 232 192 271 q 271 136 271 192 l 271 -136 q 232 -232 271 -192 q 136 -271 192 -271 q 40 -232 79 -271 q 0 -136 0 -192 l 0 136 m 136 407 q 40 447 79 407 q 0 543 0 486 q 40 638 0 599 q 136 678 79 678 q 232 638 192 678 q 271 543 271 599 q 232 447 271 486 q 136 407 192 407 z "},";":{"ha":407,"x_min":0,"x_max":271,"o":"m 0 136 q 40 232 0 192 q 136 271 79 271 q 232 232 192 271 q 271 136 271 192 l 271 -136 q 232 -232 271 -192 q 136 -271 192 -271 q 40 -232 79 -271 q 0 -136 0 -192 l 0 136 m 136 407 q 40 447 79 407 q 0 543 0 486 q 40 638 0 599 q 136 678 79 678 q 232 638 192 678 q 271 543 271 599 q 232 447 271 486 q 136 407 192 407 z "},"<":{"ha":1085,"x_min":0,"x_max":949,"o":"m 746 932 q 814 949 777 943 q 910 910 870 949 q 949 814 949 870 q 910 718 949 758 q 831 679 876 691 l 831 678 l 509 543 l 831 407 l 831 406 q 910 368 876 394 q 949 271 949 328 q 910 175 949 215 q 814 136 870 136 q 746 153 777 142 l 119 407 q 40 446 73 420 q 0 543 0 486 q 40 638 0 599 q 119 678 73 665 l 746 932 z "},"=":{"ha":814,"x_min":0,"x_max":678,"o":"m 543 475 q 638 435 599 475 q 678 339 678 395 q 638 243 678 283 q 543 203 599 203 l 136 203 q 40 243 79 203 q 0 339 0 283 q 40 435 0 395 q 136 475 79 475 l 543 475 m 543 882 q 638 842 599 882 q 678 746 678 802 q 638 650 678 690 q 543 610 599 610 l 136 610 q 40 650 79 610 q 0 746 0 690 q 40 842 0 802 q 136 882 79 882 l 543 882 z "},">":{"ha":1085,"x_min":0,"x_max":949,"o":"m 203 932 l 831 678 q 909 638 876 665 q 949 543 949 599 q 909 446 949 486 q 831 407 876 420 l 203 153 q 136 136 173 142 q 40 175 79 136 q 0 271 0 215 q 40 368 0 328 q 119 406 73 394 l 119 407 l 441 543 l 119 678 l 119 679 q 40 718 73 691 q 0 814 0 758 q 40 910 0 870 q 136 949 79 949 q 203 932 173 943 z "},"?":{"ha":814,"x_min":0,"x_max":678,"o":"m 339 0 q 243 40 283 0 q 203 136 203 79 q 243 232 203 192 q 339 271 283 271 q 435 232 395 271 q 475 136 475 192 q 435 40 475 79 q 339 0 395 0 m 339 407 q 243 447 283 407 q 203 543 203 486 q 243 638 203 599 q 339 678 283 678 q 387 698 367 678 q 407 746 407 718 q 387 794 407 774 q 339 814 367 814 q 291 794 311 814 q 271 746 271 774 q 232 650 271 690 q 136 610 192 610 q 40 650 79 610 q 0 746 0 690 q 99 986 0 886 q 339 1085 199 1085 q 579 986 479 1085 q 678 746 678 886 q 579 506 678 606 q 339 407 479 407 z "},"@":{"ha":1221,"x_min":0,"x_max":1085,"o":"m 543 339 q 447 379 486 339 q 407 475 407 418 l 407 610 q 447 706 407 667 q 543 746 486 746 q 638 706 599 746 q 678 610 678 667 l 806 610 q 734 734 789 680 q 543 814 655 814 q 351 734 430 814 q 271 543 271 655 q 351 351 271 430 q 543 271 430 271 l 814 271 q 910 232 870 271 q 949 136 949 192 q 910 40 949 79 q 814 0 870 0 l 543 0 q 159 159 318 0 q 0 543 0 318 q 159 926 0 767 q 543 1085 318 1085 q 926 926 767 1085 q 1085 543 1085 767 l 1085 475 q 1045 379 1085 418 q 949 339 1006 339 l 543 339 z "},"A":{"ha":1221,"x_min":0,"x_max":1085,"o":"m 288 136 l 254 68 l 254 68 q 232 39 245 53 q 136 0 192 0 q 40 40 79 0 q 0 136 0 79 q 18 203 0 173 l 17 203 l 424 1017 l 425 1017 q 447 1045 433 1032 q 543 1085 486 1085 q 639 1045 599 1085 q 661 1017 652 1032 l 661 1017 l 1068 203 l 1067 203 q 1085 136 1085 173 q 1045 40 1085 79 q 949 0 1006 0 q 854 39 893 0 q 831 68 840 53 l 831 68 l 797 136 l 288 136 m 661 407 l 543 644 l 424 407 l 661 407 z "},"B":{"ha":949,"x_min":0,"x_max":814,"o":"m 475 407 l 271 407 l 271 271 l 475 271 q 523 291 503 271 q 543 339 543 311 q 523 387 543 367 q 475 407 503 407 m 475 678 q 523 698 503 678 q 543 746 543 718 q 523 794 543 774 q 475 814 503 814 l 271 814 l 271 678 l 475 678 m 0 949 q 40 1045 0 1006 q 136 1085 79 1085 l 475 1085 q 714 986 615 1085 q 814 746 814 886 q 747 543 814 630 q 814 339 814 455 q 714 99 814 199 q 475 0 615 0 l 136 0 q 40 40 79 0 q 0 136 0 79 l 0 949 z "},"C":{"ha":1119,"x_min":0,"x_max":983,"o":"m 933 919 q 944 910 939 915 q 983 814 983 870 q 944 718 983 758 q 848 678 904 678 q 752 718 791 678 q 743 728 747 722 q 734 734 739 730 q 543 814 655 814 q 351 734 430 814 q 271 543 271 655 q 351 351 271 430 q 543 271 430 271 q 734 351 655 271 q 743 357 739 355 q 752 368 747 362 q 848 407 791 407 q 944 367 904 407 q 983 271 983 328 q 944 176 983 215 q 930 163 937 169 q 926 159 928 161 q 543 0 767 0 q 159 159 318 0 q 0 543 0 318 q 159 926 0 767 q 543 1085 318 1085 q 926 926 767 1085 q 933 919 930 923 z "},"D":{"ha":949,"x_min":0,"x_max":814,"o":"m 271 814 l 271 271 q 463 351 384 271 q 543 543 543 430 q 463 734 543 655 q 271 814 384 814 m 271 0 l 136 0 q 40 40 79 0 q 0 136 0 79 l 0 949 q 40 1045 0 1006 q 136 1085 79 1085 l 271 1085 q 655 926 496 1085 q 814 543 814 767 q 655 159 814 318 q 271 0 496 0 z "},"E":{"ha":949,"x_min":0,"x_max":814,"o":"m 543 678 q 638 638 599 678 q 678 543 678 599 q 638 447 678 486 q 543 407 599 407 l 271 407 l 271 271 l 678 271 q 774 232 734 271 q 814 136 814 192 q 774 40 814 79 q 678 0 734 0 l 136 0 q 40 40 79 0 q 0 136 0 79 l 0 949 q 40 1045 0 1006 q 136 1085 79 1085 l 678 1085 q 774 1045 734 1085 q 814 949 814 1006 q 774 853 814 893 q 678 814 734 814 l 271 814 l 271 678 l 543 678 z "},"F":{"ha":949,"x_min":0,"x_max":814,"o":"m 543 678 q 638 638 599 678 q 678 543 678 599 q 638 447 678 486 q 543 407 599 407 l 271 407 l 271 136 q 232 40 271 79 q 136 0 192 0 q 40 40 79 0 q 0 136 0 79 l 0 949 q 40 1045 0 1006 q 136 1085 79 1085 l 678 1085 q 774 1045 734 1085 q 814 949 814 1006 q 774 853 814 893 q 678 814 734 814 l 271 814 l 271 678 l 543 678 z "},"G":{"ha":1119,"x_min":0,"x_max":983,"o":"m 983 271 q 944 176 983 215 q 930 163 937 169 q 926 159 928 161 q 543 0 767 0 q 159 159 318 0 q 0 543 0 318 q 159 926 0 767 q 543 1085 318 1085 q 926 926 767 1085 q 933 919 930 923 q 944 910 939 915 q 983 814 983 870 q 944 718 983 758 q 848 678 904 678 q 752 718 791 678 q 743 728 747 722 q 734 734 739 730 q 543 814 655 814 q 351 734 430 814 q 271 543 271 655 q 351 351 271 430 q 543 271 430 271 q 712 330 640 271 l 712 339 l 543 339 q 447 379 486 339 q 407 475 407 418 q 447 571 407 531 q 543 610 486 610 l 848 610 q 944 571 904 610 q 983 475 983 531 l 983 271 z "},"H":{"ha":949,"x_min":0,"x_max":814,"o":"m 271 407 l 271 136 q 232 40 271 79 q 136 0 192 0 q 40 40 79 0 q 0 136 0 79 l 0 949 q 40 1045 0 1006 q 136 1085 79 1085 q 232 1045 192 1085 q 271 949 271 1006 l 271 678 l 543 678 l 543 949 q 582 1045 543 1006 q 678 1085 622 1085 q 774 1045 734 1085 q 814 949 814 1006 l 814 136 q 774 40 814 79 q 678 0 734 0 q 582 40 622 0 q 543 136 543 79 l 543 407 l 271 407 z "},"I":{"ha":407,"x_min":0,"x_max":271,"o":"m 271 136 q 232 40 271 79 q 136 0 192 0 q 40 40 79 0 q 0 136 0 79 l 0 949 q 40 1045 0 1006 q 136 1085 79 1085 q 232 1045 192 1085 q 271 949 271 1006 l 271 136 z "},"J":{"ha":678,"x_min":0,"x_max":543,"o":"m 136 271 q 232 311 192 271 q 271 407 271 351 l 271 949 q 311 1045 271 1006 q 407 1085 351 1085 q 503 1045 463 1085 q 543 949 543 1006 l 543 407 q 424 119 543 238 q 136 0 304 0 q 40 40 79 0 q 0 136 0 79 q 40 232 0 192 q 136 271 79 271 z "},"K":{"ha":949,"x_min":0,"x_max":814,"o":"m 271 755 l 566 1025 q 583 1046 573 1036 q 678 1085 622 1085 q 774 1045 734 1085 q 814 949 814 1006 q 774 854 814 893 q 745 831 760 840 l 432 543 l 745 254 q 774 232 760 245 q 814 136 814 192 q 774 40 814 79 q 678 0 734 0 q 583 40 622 0 q 566 60 573 49 l 271 330 l 271 136 q 232 40 271 79 q 136 0 192 0 q 40 40 79 0 q 0 136 0 79 l 0 949 q 40 1045 0 1006 q 136 1085 79 1085 q 232 1045 192 1085 q 271 949 271 1006 l 271 755 z "},"L":{"ha":949,"x_min":0,"x_max":814,"o":"m 136 0 q 40 40 79 0 q 0 136 0 79 l 0 949 q 40 1045 0 1006 q 136 1085 79 1085 q 232 1045 192 1085 q 271 949 271 1006 l 271 271 l 678 271 q 774 232 734 271 q 814 136 814 192 q 774 40 814 79 q 678 0 734 0 l 136 0 z "},"M":{"ha":1356,"x_min":0,"x_max":1221,"o":"m 610 559 l 746 966 q 785 1045 759 1012 q 882 1085 825 1085 q 977 1045 938 1085 q 1017 966 1004 1012 l 1204 203 q 1221 136 1214 173 q 1181 40 1221 79 q 1085 0 1141 0 q 989 39 1029 0 q 950 119 962 73 l 949 119 l 865 475 l 746 119 l 745 119 q 745 117 745 118 q 706 39 739 73 q 610 0 667 0 q 511 43 554 0 q 476 117 481 75 q 475 119 475 118 l 475 119 l 356 475 l 271 119 l 271 119 q 231 39 258 73 q 136 0 192 0 q 40 40 79 0 q 0 136 0 79 q 17 203 7 173 l 203 966 q 243 1045 216 1012 q 339 1085 283 1085 q 435 1045 395 1085 q 475 966 462 1012 l 610 559 z "},"N":{"ha":949,"x_min":0,"x_max":814,"o":"m 543 563 l 543 949 q 582 1045 543 1006 q 678 1085 622 1085 q 774 1045 734 1085 q 814 949 814 1006 l 814 136 q 774 40 814 79 q 678 0 734 0 q 583 40 622 0 q 560 68 569 53 l 559 68 l 271 522 l 271 136 q 232 40 271 79 q 136 0 192 0 q 40 40 79 0 q 0 136 0 79 l 0 949 q 40 1045 0 1006 q 136 1085 79 1085 q 232 1046 192 1085 q 254 1017 245 1032 l 254 1017 l 543 563 z "},"O":{"ha":1221,"x_min":0,"x_max":1085,"o":"m 543 0 q 159 159 318 0 q 0 543 0 318 q 159 926 0 767 q 543 1085 318 1085 q 926 926 767 1085 q 1085 543 1085 767 q 926 159 1085 318 q 543 0 767 0 m 543 271 q 734 351 655 271 q 814 543 814 430 q 734 734 814 655 q 543 814 655 814 q 351 734 430 814 q 271 543 271 655 q 351 351 271 430 q 543 271 430 271 z "},"P":{"ha":949,"x_min":0,"x_max":814,"o":"m 475 814 l 271 814 l 271 678 l 475 678 q 523 698 503 678 q 543 746 543 718 q 523 794 543 774 q 475 814 503 814 m 475 407 l 271 407 l 271 136 q 232 40 271 79 q 136 0 192 0 q 40 40 79 0 q 0 136 0 79 l 0 949 q 40 1045 0 1006 q 136 1085 79 1085 l 475 1085 q 714 986 615 1085 q 814 746 814 886 q 714 506 814 606 q 475 407 615 407 z "},"Q":{"ha":1221,"x_min":0,"x_max":1085,"o":"m 800 454 q 814 543 814 495 q 734 734 814 655 q 543 814 655 814 q 351 734 430 814 q 271 543 271 655 q 351 351 271 430 q 543 271 430 271 q 601 277 573 271 l 549 311 q 509 407 509 351 q 548 503 509 463 q 644 543 588 543 q 741 503 701 543 l 800 454 m 820 75 q 543 0 696 0 q 159 159 318 0 q 0 543 0 318 q 159 926 0 767 q 543 1085 318 1085 q 926 926 767 1085 q 1085 543 1085 767 q 1008 262 1085 387 l 1016 254 q 1046 232 1031 245 q 1085 136 1085 192 q 1045 40 1085 79 q 949 0 1006 0 q 854 40 893 0 q 837 60 844 49 l 820 75 z "},"R":{"ha":949,"x_min":0,"x_max":814,"o":"m 475 814 l 271 814 l 271 678 l 475 678 q 523 698 503 678 q 543 746 543 718 q 523 794 543 774 q 475 814 503 814 m 334 407 l 271 407 l 271 136 q 232 40 271 79 q 136 0 192 0 q 40 40 79 0 q 0 136 0 79 l 0 949 q 40 1045 0 1006 q 136 1085 79 1085 l 475 1085 q 714 986 615 1085 q 814 746 814 886 q 715 507 814 606 q 640 449 680 472 l 797 203 l 796 203 q 814 136 814 173 q 774 40 814 79 q 678 0 734 0 q 583 40 622 0 q 560 68 569 53 l 559 68 l 334 407 z "},"S":{"ha":814,"x_min":0,"x_max":678,"o":"m 17 254 q 57 350 17 311 q 153 390 96 390 q 249 351 209 390 q 279 304 269 330 q 292 292 285 298 q 339 271 311 271 q 387 291 367 271 q 407 339 407 311 q 387 387 407 367 q 339 407 367 407 q 99 506 199 407 q 0 746 0 606 q 99 986 0 886 q 339 1085 199 1085 q 570 992 479 1085 q 661 831 661 899 q 622 735 661 774 q 526 695 582 695 q 430 735 469 695 q 399 781 409 755 q 387 794 393 787 q 339 814 367 814 q 291 794 311 814 q 271 746 271 774 q 291 698 271 718 q 339 678 311 678 q 579 579 479 678 q 678 339 678 479 q 579 99 678 199 q 339 0 479 0 q 108 93 199 0 q 17 254 17 186 z "},"T":{"ha":949,"x_min":0,"x_max":814,"o":"m 271 814 l 136 814 q 40 853 79 814 q 0 949 0 893 q 40 1045 0 1006 q 136 1085 79 1085 l 678 1085 q 774 1045 734 1085 q 814 949 814 1006 q 774 853 814 893 q 678 814 734 814 l 543 814 l 543 136 q 503 40 543 79 q 407 0 463 0 q 311 40 351 0 q 271 136 271 79 l 271 814 z "},"U":{"ha":949,"x_min":0,"x_max":814,"o":"m 0 949 q 40 1045 0 1006 q 136 1085 79 1085 q 232 1045 192 1085 q 271 949 271 1006 l 271 407 q 311 311 271 351 q 407 271 351 271 q 503 311 463 271 q 543 407 543 351 l 543 949 q 582 1045 543 1006 q 678 1085 622 1085 q 774 1045 734 1085 q 814 949 814 1006 l 814 407 q 695 119 814 238 q 407 0 576 0 q 119 119 238 0 q 0 407 0 238 l 0 949 z "},"V":{"ha":1221,"x_min":0,"x_max":1085,"o":"m 543 441 l 831 1017 l 831 1017 q 854 1046 840 1032 q 949 1085 893 1085 q 1045 1045 1006 1085 q 1085 949 1085 1006 q 1067 882 1085 912 l 1068 882 l 661 68 l 661 68 q 639 40 652 53 q 543 0 599 0 q 447 40 486 0 q 425 68 433 53 l 424 68 l 17 882 l 18 882 q 0 949 0 912 q 40 1045 0 1006 q 136 1085 79 1085 q 232 1046 192 1085 q 254 1017 245 1032 l 254 1017 l 543 441 z "},"W":{"ha":1492,"x_min":0,"x_max":1356,"o":"m 678 526 l 543 119 q 503 40 530 73 q 407 0 463 0 q 311 40 351 0 q 271 119 284 73 l 17 882 q 0 949 7 912 q 40 1045 0 1006 q 136 1085 79 1085 q 232 1046 192 1085 q 271 966 258 1012 l 271 966 l 407 559 l 543 966 l 543 966 q 544 968 543 967 q 583 1046 549 1013 q 678 1085 622 1085 q 777 1042 734 1085 q 812 968 807 1010 q 813 966 813 967 l 814 966 l 949 559 l 1085 966 l 1086 966 q 1125 1046 1098 1012 q 1221 1085 1164 1085 q 1317 1045 1277 1085 q 1356 949 1356 1006 q 1339 882 1350 912 l 1085 119 q 1046 40 1072 73 q 949 0 1006 0 q 854 40 893 0 q 814 119 827 73 l 678 526 z "},"X":{"ha":949,"x_min":0,"x_max":814,"o":"m 574 538 l 797 203 l 796 203 q 814 136 814 173 q 774 40 814 79 q 678 0 734 0 q 583 40 622 0 q 560 68 569 53 l 559 68 l 407 292 l 254 68 l 254 68 q 232 40 245 53 q 136 0 192 0 q 40 40 79 0 q 0 136 0 79 q 18 203 0 173 l 17 203 l 239 538 l 17 865 q 0 949 0 893 q 40 1045 0 1006 q 136 1085 79 1085 q 232 1046 192 1085 q 254 1017 245 1032 l 254 1017 l 407 789 l 559 1017 l 560 1017 q 582 1046 569 1032 q 678 1085 622 1085 q 774 1045 734 1085 q 814 949 814 1006 q 797 865 814 893 l 574 538 z "},"Y":{"ha":949,"x_min":0,"x_max":814,"o":"m 271 491 l 239 538 l 17 865 q 0 949 0 893 q 40 1045 0 1006 q 136 1085 79 1085 q 232 1046 192 1085 q 254 1017 245 1032 l 254 1017 l 407 789 l 559 1017 l 560 1017 q 582 1046 569 1032 q 678 1085 622 1085 q 774 1045 734 1085 q 814 949 814 1006 q 797 865 814 893 l 574 538 l 543 491 l 543 136 q 503 40 543 79 q 407 0 463 0 q 311 40 351 0 q 271 136 271 79 l 271 491 z "},"Z":{"ha":949,"x_min":0,"x_max":814,"o":"m 136 814 q 40 853 79 814 q 0 949 0 893 q 40 1045 0 1006 q 136 1085 79 1085 l 678 1085 q 774 1045 734 1085 q 814 949 814 1006 q 797 865 814 893 l 393 271 l 678 271 q 774 232 734 271 q 814 136 814 192 q 774 40 814 79 q 678 0 734 0 l 136 0 q 40 40 79 0 q 0 136 0 79 q 18 203 0 173 l 17 203 l 424 814 l 136 814 z "},"[":{"ha":678,"x_min":0,"x_max":543,"o":"m 271 0 l 407 0 q 503 -40 463 0 q 543 -136 543 -79 q 503 -232 543 -192 q 407 -271 463 -271 l 136 -271 q 40 -232 79 -271 q 0 -136 0 -192 l 0 1221 q 40 1317 0 1277 q 136 1356 79 1356 l 407 1356 q 503 1317 463 1356 q 543 1221 543 1277 q 503 1125 543 1164 q 407 1085 463 1085 l 271 1085 l 271 0 z "},"\\":{"ha":949,"x_min":0,"x_max":814,"o":"m 796 203 q 814 136 814 173 q 774 40 814 79 q 678 0 734 0 q 583 40 622 0 q 560 68 569 53 l 559 68 l 17 865 q 0 949 0 893 q 40 1045 0 1006 q 136 1085 79 1085 q 232 1046 192 1085 q 254 1017 245 1032 l 254 1017 l 797 203 l 796 203 z "},"]":{"ha":678,"x_min":0,"x_max":543,"o":"m 271 1085 l 136 1085 q 40 1125 79 1085 q 0 1221 0 1164 q 40 1317 0 1277 q 136 1356 79 1356 l 407 1356 q 503 1317 463 1356 q 543 1221 543 1277 l 543 -136 q 503 -232 543 -192 q 407 -271 463 -271 l 136 -271 q 40 -232 79 -271 q 0 -136 0 -192 q 40 -40 0 -79 q 136 0 79 0 l 271 0 l 271 1085 z "},"^":{"ha":1017,"x_min":0,"x_max":882,"o":"m 441 1379 l 232 1193 q 136 1153 192 1153 q 40 1193 79 1153 q 0 1289 0 1232 q 40 1385 0 1345 l 345 1656 q 441 1695 385 1695 q 537 1656 497 1695 l 842 1385 q 882 1289 882 1345 q 842 1193 882 1232 q 746 1153 802 1153 q 650 1193 690 1153 l 441 1379 z "},"_":{"ha":814,"x_min":0,"x_max":678,"o":"m 543 -136 q 638 -175 599 -136 q 678 -271 678 -215 q 638 -367 678 -328 q 543 -407 599 -407 l 136 -407 q 40 -367 79 -407 q 0 -271 0 -328 q 40 -175 0 -215 q 136 -136 79 -136 l 543 -136 z "},"`":{"ha":814,"x_min":0,"x_max":678,"o":"m 40 1464 q 0 1560 0 1503 q 40 1656 0 1616 q 136 1695 79 1695 q 232 1656 170 1695 l 639 1385 q 678 1289 678 1345 q 638 1193 678 1232 q 543 1153 599 1153 q 447 1193 509 1153 l 40 1464 z "},"a":{"ha":1085,"x_min":0,"x_max":949,"o":"m 475 271 q 618 331 559 271 q 678 475 678 391 q 618 618 678 559 q 475 678 559 678 q 331 618 391 678 q 271 475 271 559 q 331 331 271 391 q 475 271 391 271 m 703 57 q 475 0 601 0 q 139 139 278 0 q 0 475 0 278 q 136 810 0 671 q 475 949 271 949 q 814 814 678 949 q 949 475 949 678 l 949 136 q 910 40 949 79 q 814 0 870 0 q 718 40 758 0 q 703 57 709 48 z "},"b":{"ha":1085,"x_min":0,"x_max":949,"o":"m 331 331 q 361 301 331 331 q 475 271 391 271 q 618 331 559 271 q 678 475 678 391 q 618 618 678 559 q 475 678 559 678 q 331 618 391 678 q 271 475 271 559 q 331 331 271 391 m 0 949 q 40 1045 0 1006 q 136 1085 79 1085 q 232 1045 192 1085 q 271 949 271 1006 l 271 905 q 475 949 363 949 q 810 810 671 949 q 949 475 949 671 q 810 139 949 278 q 475 0 671 0 q 139 139 278 0 q 0 475 0 278 l 0 949 z "},"c":{"ha":1017,"x_min":0,"x_max":882,"o":"m 839 777 q 842 774 840 776 q 882 678 882 734 q 842 582 882 622 q 746 543 802 543 q 650 583 690 543 q 627 612 636 596 q 618 618 623 614 q 475 678 559 678 q 331 618 391 678 q 271 475 271 559 q 331 331 271 391 q 475 271 391 271 q 618 331 559 271 q 628 338 623 336 q 650 368 637 354 q 746 407 690 407 q 842 367 802 407 q 882 271 882 328 q 842 176 882 215 q 840 173 841 174 q 810 139 828 157 q 475 0 671 0 q 139 139 278 0 q 0 475 0 278 q 139 810 0 671 q 475 949 278 949 q 810 810 671 949 q 839 777 828 793 z "},"d":{"ha":1085,"x_min":0,"x_max":949,"o":"m 618 331 q 648 361 618 331 q 678 475 678 391 q 618 618 678 559 q 475 678 559 678 q 331 618 391 678 q 271 475 271 559 q 331 331 271 391 q 475 271 391 271 q 618 331 559 271 m 949 475 q 810 139 949 278 q 475 0 671 0 q 139 139 278 0 q 0 475 0 278 q 139 810 0 671 q 475 949 278 949 q 678 905 586 949 l 678 949 q 718 1045 678 1006 q 814 1085 758 1085 q 910 1045 870 1085 q 949 949 949 1006 l 949 475 z "},"e":{"ha":1085,"x_min":0,"x_max":949,"o":"m 323 339 q 331 331 327 335 q 475 271 391 271 l 678 271 q 774 232 734 271 q 814 136 814 192 q 774 40 814 79 q 678 0 734 0 l 475 0 q 139 139 278 0 q 0 475 0 278 q 139 810 0 671 q 475 949 278 949 q 810 810 671 949 q 949 475 949 671 q 910 379 949 418 q 814 339 870 339 l 323 339 m 626 610 q 618 618 623 614 q 475 678 559 678 q 331 618 391 678 q 323 610 327 614 l 626 610 z "},"f":{"ha":916,"x_min":0,"x_max":780,"o":"m 0 678 q 119 966 0 847 q 407 1085 238 1085 q 695 966 576 1085 q 748 902 726 935 q 780 814 780 865 q 740 718 780 758 q 644 678 701 678 q 549 718 588 678 l 503 774 q 407 814 463 814 q 311 774 351 814 q 271 678 271 734 l 271 610 l 339 610 q 435 571 395 610 q 475 475 475 531 q 435 379 475 418 q 339 339 395 339 l 271 339 l 271 136 q 232 40 271 79 q 136 0 192 0 q 40 40 79 0 q 0 136 0 79 l 0 678 z "},"g":{"ha":1085,"x_min":0,"x_max":949,"o":"m 475 271 q 618 331 559 271 q 678 475 678 391 q 618 618 678 559 q 475 678 559 678 q 331 618 391 678 q 271 475 271 559 q 331 331 271 391 q 475 271 391 271 m 678 44 q 475 0 586 0 q 139 139 278 0 q 0 475 0 278 q 139 810 0 671 q 475 949 278 949 q 814 814 678 949 q 949 475 949 678 l 949 0 q 830 -288 949 -169 q 543 -407 711 -407 q 447 -367 486 -407 q 407 -271 407 -328 q 447 -175 407 -215 q 543 -136 486 -136 q 638 -96 599 -136 q 678 0 678 -56 l 678 44 z "},"h":{"ha":949,"x_min":0,"x_max":814,"o":"m 271 928 q 407 949 334 949 q 695 830 576 949 q 814 543 814 711 l 814 136 q 774 40 814 79 q 678 0 734 0 q 582 40 622 0 q 543 136 543 79 l 543 543 q 503 638 543 599 q 407 678 463 678 q 311 638 351 678 q 271 543 271 599 l 271 136 q 232 40 271 79 q 136 0 192 0 q 40 40 79 0 q 0 136 0 79 l 0 949 q 40 1045 0 1006 q 136 1085 79 1085 q 232 1045 192 1085 q 271 949 271 1006 l 271 928 z "},"i":{"ha":407,"x_min":0,"x_max":271,"o":"m 271 136 q 232 40 271 79 q 136 0 192 0 q 40 40 79 0 q 0 136 0 79 l 0 814 q 40 910 0 870 q 136 949 79 949 q 232 910 192 949 q 271 814 271 870 l 271 136 m 136 1085 q 40 1125 79 1085 q 0 1221 0 1164 q 40 1317 0 1277 q 136 1356 79 1356 q 232 1317 192 1356 q 271 1221 271 1277 q 232 1125 271 1164 q 136 1085 192 1085 z "},"j":{"ha":407,"x_min":-271,"x_max":271,"o":"m -136 -136 q -40 -96 -79 -136 q 0 0 0 -56 l 0 814 q 40 910 0 870 q 136 949 79 949 q 232 910 192 949 q 271 814 271 870 l 271 0 q 152 -288 271 -169 q -136 -407 33 -407 q -232 -367 -192 -407 q -271 -271 -271 -328 q -232 -175 -271 -215 q -136 -136 -192 -136 m 136 1085 q 40 1125 79 1085 q 0 1221 0 1164 q 40 1317 0 1277 q 136 1356 79 1356 q 232 1317 192 1356 q 271 1221 271 1277 q 232 1125 271 1164 q 136 1085 192 1085 z "},"k":{"ha":949,"x_min":0,"x_max":814,"o":"m 271 521 l 583 910 q 678 949 622 949 q 774 910 734 949 q 814 814 814 870 q 774 718 814 758 l 576 475 l 774 232 q 814 136 814 192 q 774 40 814 79 q 678 0 734 0 q 583 40 622 0 l 407 261 l 252 66 q 232 40 244 52 q 136 0 192 0 q 40 40 79 0 q 0 136 0 79 l 0 949 q 40 1045 0 1006 q 136 1085 79 1085 q 232 1045 192 1085 q 271 949 271 1006 l 271 521 z "},"l":{"ha":407,"x_min":0,"x_max":271,"o":"m 271 136 q 232 40 271 79 q 136 0 192 0 q 40 40 79 0 q 0 136 0 79 l 0 949 q 40 1045 0 1006 q 136 1085 79 1085 q 232 1045 192 1085 q 271 949 271 1006 l 271 136 z "},"m":{"ha":1221,"x_min":0,"x_max":1085,"o":"m 1085 136 q 1045 40 1085 79 q 949 0 1006 0 q 853 40 893 0 q 814 136 814 79 l 814 610 q 794 658 814 638 q 746 678 774 678 q 698 658 718 678 q 678 610 678 638 l 678 136 q 638 40 678 79 q 543 0 599 0 q 447 40 486 0 q 407 136 407 79 l 407 610 q 387 658 407 638 q 339 678 367 678 q 291 658 311 678 q 271 610 271 638 l 271 136 q 232 40 271 79 q 136 0 192 0 q 40 40 79 0 q 0 136 0 79 l 0 610 q 102 848 0 746 q 339 949 203 949 q 543 882 455 949 q 746 949 630 949 q 986 850 886 949 q 1085 610 1085 751 l 1085 136 z "},"n":{"ha":949,"x_min":0,"x_max":814,"o":"m 119 831 q 178 890 119 831 q 407 949 237 949 q 695 830 576 949 q 814 543 814 711 l 814 136 q 774 40 814 79 q 678 0 734 0 q 582 40 622 0 q 543 136 543 79 l 543 543 q 503 638 543 599 q 407 678 463 678 q 311 638 351 678 q 271 543 271 599 l 271 136 q 232 40 271 79 q 136 0 192 0 q 40 40 79 0 q 0 136 0 79 l 0 543 q 119 831 0 712 z "},"o":{"ha":1085,"x_min":0,"x_max":949,"o":"m 475 0 q 139 139 278 0 q 0 475 0 278 q 139 810 0 671 q 475 949 278 949 q 810 810 671 949 q 949 475 949 671 q 810 139 949 278 q 475 0 671 0 m 475 271 q 618 331 559 271 q 678 475 678 391 q 618 618 678 559 q 475 678 559 678 q 331 618 391 678 q 271 475 271 559 q 331 331 271 391 q 475 271 391 271 z "},"p":{"ha":1085,"x_min":0,"x_max":949,"o":"m 475 271 q 618 331 559 271 q 678 475 678 391 q 618 618 678 559 q 475 678 559 678 q 331 618 391 678 q 271 475 271 559 q 331 331 271 391 q 475 271 391 271 m 0 475 q 139 810 0 671 q 475 949 278 949 q 810 810 671 949 q 949 475 949 671 q 810 139 949 278 q 475 0 671 0 q 271 44 363 0 l 271 -271 q 232 -367 271 -328 q 136 -407 192 -407 q 40 -367 79 -407 q 0 -271 0 -328 l 0 475 z "},"q":{"ha":1085,"x_min":0,"x_max":949,"o":"m 475 271 q 618 331 559 271 q 678 475 678 391 q 618 618 678 559 q 475 678 559 678 q 331 618 391 678 q 271 475 271 559 q 331 331 271 391 q 475 271 391 271 m 949 -271 q 910 -367 949 -328 q 814 -407 870 -407 q 718 -367 758 -407 q 678 -271 678 -328 l 678 44 q 475 0 586 0 q 139 139 278 0 q 0 475 0 278 q 139 810 0 671 q 475 949 278 949 q 810 810 671 949 q 949 475 949 671 l 949 -271 z "},"r":{"ha":916,"x_min":0,"x_max":780,"o":"m 102 848 q 153 899 102 848 q 407 949 203 949 q 695 831 576 949 q 748 766 726 800 q 780 678 780 729 q 740 582 780 622 q 644 543 701 543 q 549 583 588 543 l 503 639 q 407 678 463 678 q 311 638 351 678 q 271 543 271 599 l 271 136 q 232 40 271 79 q 136 0 192 0 q 40 40 79 0 q 0 136 0 79 l 0 543 q 102 848 0 746 z "},"s":{"ha":780,"x_min":0,"x_max":644,"o":"m 203 288 q 305 271 237 271 l 339 271 q 363 281 353 271 q 373 305 373 291 q 363 329 373 319 q 339 339 353 339 l 305 339 q 90 429 179 339 q 0 644 0 518 q 90 860 0 770 q 305 949 179 949 l 407 949 q 586 892 508 949 q 595 885 591 888 q 623 860 609 873 q 619 859 621 859 q 644 780 644 825 q 605 684 644 724 q 509 644 565 644 q 441 661 475 644 q 339 678 407 678 l 305 678 q 281 668 291 678 q 271 644 271 659 q 281 620 271 630 q 305 610 291 610 l 339 610 q 555 521 465 610 q 644 305 644 431 q 555 90 644 179 q 339 0 465 0 l 237 0 q 58 58 136 0 q 50 64 54 61 q 22 90 35 76 q 24 93 22 91 q 0 170 0 126 q 40 266 0 226 q 136 305 79 305 q 203 288 168 305 z "},"t":{"ha":916,"x_min":0,"x_max":780,"o":"m 0 949 q 40 1045 0 1006 q 136 1085 79 1085 q 232 1045 192 1085 q 271 949 271 1006 l 339 949 q 435 910 395 949 q 475 814 475 870 q 435 718 475 758 q 339 678 395 678 l 271 678 l 271 407 q 311 311 271 351 q 407 271 351 271 q 503 311 463 271 l 549 367 q 644 407 588 407 q 740 367 701 407 q 780 271 780 328 q 748 183 780 220 q 695 119 726 150 q 407 0 576 0 q 119 119 238 0 q 0 407 0 238 l 0 949 z "},"u":{"ha":949,"x_min":0,"x_max":814,"o":"m 119 119 q 59 178 119 119 q 0 407 0 237 l 0 814 q 40 910 0 870 q 136 949 79 949 q 232 910 192 949 q 271 814 271 870 l 271 407 q 311 311 271 351 q 407 271 351 271 q 503 311 463 271 q 543 407 543 351 l 543 814 q 582 910 543 870 q 678 949 622 949 q 774 910 734 949 q 814 814 814 870 l 814 407 q 695 119 814 238 q 407 0 576 0 q 119 119 237 0 z "},"v":{"ha":949,"x_min":0,"x_max":814,"o":"m 17 746 q 0 814 7 777 q 40 910 0 870 q 136 949 79 949 q 232 910 192 949 q 271 831 258 876 l 271 831 l 407 509 l 543 831 l 543 831 q 583 910 555 876 q 678 949 622 949 q 774 910 734 949 q 814 814 814 870 q 797 746 807 777 l 543 119 q 503 40 530 73 q 407 0 463 0 q 311 40 351 0 q 271 119 284 73 l 17 746 z "},"w":{"ha":1492,"x_min":0,"x_max":1356,"o":"m 678 453 l 543 119 q 503 40 530 73 q 407 0 463 0 q 311 40 351 0 q 271 119 284 73 l 17 746 q 0 814 7 777 q 40 910 0 870 q 136 949 79 949 q 232 910 192 949 q 271 831 258 876 l 271 831 l 407 509 l 543 831 l 543 831 q 544 833 543 831 q 583 910 549 877 q 678 949 622 949 q 771 912 734 949 q 812 833 807 875 q 813 831 813 831 l 814 831 l 949 509 l 1085 831 l 1086 831 q 1125 910 1098 876 q 1221 949 1164 949 q 1317 910 1277 949 q 1356 814 1356 870 q 1339 746 1350 777 l 1085 119 q 1046 40 1072 73 q 949 0 1006 0 q 854 40 893 0 q 814 119 827 73 l 678 453 z "},"x":{"ha":949,"x_min":0,"x_max":814,"o":"m 576 475 l 774 232 q 814 136 814 192 q 774 40 814 79 q 678 0 734 0 q 583 40 622 0 l 407 261 l 232 40 q 136 0 192 0 q 40 40 79 0 q 0 136 0 79 q 40 232 0 192 l 238 475 l 40 718 q 0 814 0 758 q 40 910 0 870 q 136 949 79 949 q 232 910 192 949 l 407 688 l 583 910 q 678 949 622 949 q 774 910 734 949 q 814 814 814 870 q 774 718 814 758 l 576 475 z "},"y":{"ha":949,"x_min":0,"x_max":814,"o":"m 814 814 q 797 729 814 758 l 356 -339 l 355 -339 q 334 -367 347 -354 q 237 -407 294 -407 q 141 -367 181 -407 q 102 -271 102 -328 q 119 -203 102 -234 l 119 -203 l 260 145 l 17 746 q 0 814 7 777 q 40 910 0 870 q 136 949 79 949 q 232 910 192 949 q 271 831 258 876 l 271 831 l 407 509 l 437 581 l 543 831 l 543 831 q 583 910 555 876 q 678 949 622 949 q 774 910 734 949 q 814 814 814 870 z "},"z":{"ha":949,"x_min":0,"x_max":814,"o":"m 678 271 q 774 232 734 271 q 814 136 814 192 q 774 40 814 79 q 678 0 734 0 l 136 0 q 40 40 79 0 q 0 136 0 79 q 40 232 0 192 l 399 678 l 136 678 q 40 718 79 678 q 0 814 0 758 q 40 910 0 870 q 136 949 79 949 l 678 949 q 774 910 734 949 q 814 814 814 870 q 774 718 814 758 l 415 271 l 678 271 z "},"{":{"ha":916,"x_min":0,"x_max":780,"o":"m 509 746 q 441 543 509 630 q 509 339 509 455 l 509 170 q 548 74 509 113 q 644 34 588 34 q 740 -6 701 34 q 780 -102 780 -45 q 740 -198 780 -158 q 644 -237 701 -237 q 356 -118 475 -237 q 237 170 237 1 l 237 339 q 217 387 237 367 q 170 407 197 407 l 136 407 q 40 447 79 407 q 0 543 0 486 q 40 638 0 599 q 136 678 79 678 l 170 678 q 217 698 197 678 q 237 746 237 718 l 237 983 q 356 1271 237 1152 q 644 1390 475 1390 q 740 1351 701 1390 q 780 1255 780 1311 q 740 1159 780 1198 q 644 1119 701 1119 q 548 1079 588 1119 q 509 983 509 1040 l 509 746 z "},"|":{"ha":407,"x_min":0,"x_max":271,"o":"m 271 -136 q 232 -232 271 -192 q 136 -271 192 -271 q 40 -232 79 -271 q 0 -136 0 -192 l 0 1221 q 40 1317 0 1277 q 136 1356 79 1356 q 232 1317 192 1356 q 271 1221 271 1277 l 271 -136 z "},"}":{"ha":916,"x_min":0,"x_max":780,"o":"m 271 983 q 232 1079 271 1040 q 136 1119 192 1119 q 40 1159 79 1119 q 0 1255 0 1198 q 40 1351 0 1311 q 136 1390 79 1390 q 424 1271 304 1390 q 543 983 543 1152 l 543 746 q 563 698 543 718 q 610 678 583 678 l 644 678 q 740 638 701 678 q 780 543 780 599 q 740 447 780 486 q 644 407 701 407 l 610 407 q 563 387 583 407 q 543 339 543 367 l 543 170 q 424 -118 543 1 q 136 -237 304 -237 q 40 -198 79 -237 q 0 -102 0 -158 q 40 -6 0 -45 q 136 34 79 34 q 232 74 192 34 q 271 170 271 113 l 271 339 q 338 543 271 455 q 271 746 271 630 l 271 983 z "},"~":{"ha":1153,"x_min":0,"x_max":1017,"o":"m 746 1492 q 786 1588 746 1548 q 882 1628 825 1628 q 978 1588 938 1628 q 1017 1492 1017 1548 q 918 1252 1017 1352 q 678 1153 819 1153 q 458 1255 526 1153 q 387 1336 407 1316 q 339 1356 367 1356 q 291 1336 311 1356 q 271 1289 271 1316 q 232 1193 271 1232 q 136 1153 192 1153 q 40 1193 79 1153 q 0 1289 0 1232 q 99 1528 0 1429 q 339 1628 199 1628 q 559 1526 492 1628 q 630 1444 610 1464 q 678 1424 650 1424 q 726 1444 706 1424 q 746 1492 746 1464 z "},"¡":{"ha":407,"x_min":0,"x_max":271,"o":"m 271 136 q 232 40 271 79 q 136 0 192 0 q 40 40 79 0 q 0 136 0 79 l 0 543 q 40 638 0 599 q 136 678 79 678 q 232 638 192 678 q 271 543 271 599 l 271 136 m 136 814 q 40 853 79 814 q 0 949 0 893 q 40 1045 0 1006 q 136 1085 79 1085 q 232 1045 192 1085 q 271 949 271 1006 q 232 853 271 893 q 136 814 192 814 z "},"¢":{"ha":1017,"x_min":0,"x_max":882,"o":"m 475 339 q 618 399 559 339 q 628 406 623 404 q 650 435 637 422 q 746 475 690 475 q 842 435 802 475 q 882 339 882 395 q 842 243 882 283 q 840 241 841 242 q 810 207 828 224 q 610 86 722 119 l 610 68 q 571 -28 610 12 q 475 -68 531 -68 q 379 -28 418 -68 q 339 68 339 12 l 339 86 q 139 207 227 119 q 0 543 0 346 q 139 878 0 739 q 339 999 227 966 l 339 1017 q 379 1113 339 1074 q 475 1153 418 1153 q 571 1113 531 1153 q 610 1017 610 1074 l 610 999 q 810 878 722 966 q 839 845 828 861 q 842 842 840 844 q 882 746 882 802 q 842 650 882 690 q 746 610 802 610 q 650 650 690 610 q 627 680 636 664 q 618 686 623 682 q 475 746 559 746 q 331 686 391 746 q 271 543 271 627 q 331 399 271 458 q 475 339 391 339 z "},"£":{"ha":1051,"x_min":0,"x_max":916,"o":"m 780 271 q 876 232 836 271 q 916 136 916 192 q 876 40 916 79 q 780 0 836 0 l 136 0 q 40 40 79 0 q 0 136 0 79 q 40 232 0 192 q 136 271 79 271 l 136 339 q 40 379 79 339 q 0 475 0 418 q 40 571 0 531 q 136 610 79 610 l 136 678 q 255 966 136 847 q 543 1085 374 1085 q 831 966 711 1085 q 884 902 861 935 q 916 814 916 865 q 876 718 916 758 q 780 678 836 678 q 684 718 724 678 l 639 774 q 543 814 599 814 q 447 774 486 814 q 407 678 407 734 l 407 610 l 475 610 q 571 571 531 610 q 610 475 610 531 q 571 379 610 418 q 475 339 531 339 l 407 339 l 407 271 l 780 271 z "},"¤":{"ha":949,"x_min":0,"x_max":814,"o":"m 407 407 q 503 447 463 407 q 543 543 543 486 q 503 638 543 599 q 407 678 463 678 q 311 638 351 678 q 271 543 271 599 q 311 447 271 486 q 407 407 351 407 m 543 928 l 583 978 q 678 1017 622 1017 q 774 978 734 1017 q 814 882 814 938 q 774 786 814 825 l 753 759 q 814 543 814 664 q 753 326 814 422 l 774 300 q 814 203 814 260 q 774 107 814 147 q 678 68 734 68 q 583 108 622 68 l 543 157 q 407 136 479 136 q 271 157 334 136 l 232 108 q 136 68 192 68 q 40 107 79 68 q 0 203 0 147 q 40 300 0 260 l 61 326 q 0 543 0 421 q 62 760 0 664 l 40 786 q 0 882 0 825 q 40 978 0 938 q 136 1017 79 1017 q 232 978 192 1017 l 271 928 q 407 949 335 949 q 543 928 479 949 z "},"¥":{"ha":949,"x_min":0,"x_max":814,"o":"m 525 68 q 503 40 516 53 q 407 0 463 0 q 311 40 351 0 q 289 68 298 53 l 203 68 q 107 107 147 68 q 68 203 68 147 q 107 299 68 260 q 203 339 147 339 l 271 339 l 271 407 l 203 407 q 107 447 147 407 q 68 543 68 486 q 108 639 68 599 q 151 668 127 658 l 17 865 q 0 949 0 893 q 40 1045 0 1006 q 136 1085 79 1085 q 232 1046 192 1085 q 254 1017 245 1032 l 254 1017 l 407 789 l 559 1017 l 560 1017 q 582 1046 569 1032 q 678 1085 622 1085 q 774 1045 734 1085 q 814 949 814 1006 q 797 865 814 893 l 663 668 q 707 639 687 658 q 746 543 746 599 q 706 447 746 486 q 610 407 667 407 l 543 407 l 543 339 l 610 339 q 706 299 667 339 q 746 203 746 260 q 706 107 746 147 q 610 68 667 68 l 525 68 z "},"¦":{"ha":407,"x_min":0,"x_max":271,"o":"m 271 -136 q 232 -232 271 -192 q 136 -271 192 -271 q 40 -232 79 -271 q 0 -136 0 -192 l 0 271 q 40 367 0 328 q 136 407 79 407 q 232 367 192 407 q 271 271 271 328 l 271 -136 m 271 814 q 232 718 271 758 q 136 678 192 678 q 40 718 79 678 q 0 814 0 758 l 0 1221 q 40 1317 0 1277 q 136 1356 79 1356 q 232 1317 192 1356 q 271 1221 271 1277 l 271 814 z "},"§":{"ha":1119,"x_min":0,"x_max":949,"o":"m 475 407 q 571 447 531 407 q 610 543 610 486 q 571 638 610 599 q 475 678 531 678 q 379 638 418 678 q 339 543 339 599 q 379 447 339 486 q 475 407 418 407 m 75 623 q 0 882 0 737 q 139 1217 0 1078 q 475 1356 278 1356 q 810 1217 671 1356 q 839 1184 828 1200 q 842 1181 840 1183 q 882 1085 882 1141 q 842 989 882 1029 q 746 949 802 949 q 650 989 690 949 q 627 1019 636 1003 q 618 1025 623 1021 q 475 1085 559 1085 q 331 1025 391 1085 q 272 897 277 971 q 475 949 362 949 q 763 830 644 949 q 882 543 882 711 q 874 462 882 500 q 949 203 949 348 q 810 -132 949 7 q 475 -271 671 -271 q 139 -132 278 -271 q 110 -98 121 -115 q 107 -96 109 -97 q 68 0 68 -56 q 107 96 68 56 q 203 136 147 136 q 299 96 260 136 q 321 67 313 83 q 331 60 326 64 q 475 0 391 0 q 618 60 559 0 q 677 189 673 114 q 475 136 587 136 q 187 255 306 136 q 68 543 68 374 q 75 623 68 585 z "},"¨":{"ha":814,"x_min":0,"x_max":678,"o":"m 136 1221 q 40 1260 79 1221 q 0 1356 0 1300 q 40 1452 0 1413 q 136 1492 79 1492 q 232 1452 192 1492 q 271 1356 271 1413 q 232 1260 271 1300 q 136 1221 192 1221 m 543 1221 q 447 1260 486 1221 q 407 1356 407 1300 q 447 1452 407 1413 q 543 1492 486 1492 q 638 1452 599 1492 q 678 1356 678 1413 q 638 1260 678 1300 q 543 1221 599 1221 z "},"©":{"ha":1017,"x_min":0,"x_max":882,"o":"m 623 863 q 625 862 624 863 q 644 814 644 842 q 625 766 644 786 q 576 746 605 746 q 529 766 549 746 q 517 781 522 773 q 513 784 515 782 q 441 814 483 814 q 369 784 399 814 q 339 712 339 754 q 369 640 339 670 q 441 610 399 610 q 513 640 483 610 q 517 644 515 643 q 529 659 522 652 q 576 678 549 678 q 625 659 605 678 q 644 610 644 639 q 625 563 644 583 q 623 562 624 562 q 609 545 618 553 q 441 475 539 475 q 273 544 342 475 q 203 712 203 614 q 273 880 203 810 q 441 949 342 949 q 609 880 539 949 q 623 863 618 871 m 441 1017 q 225 928 315 1017 q 136 712 136 838 q 225 496 136 586 q 441 407 315 407 q 656 496 567 407 q 746 712 746 586 q 656 928 746 838 q 441 1017 567 1017 m 441 1153 q 752 1024 623 1153 q 882 712 882 895 q 752 400 882 530 q 441 271 623 271 q 129 400 258 271 q 0 712 0 530 q 129 1024 0 895 q 441 1153 258 1153 z "},"ª":{"ha":1119,"x_min":0,"x_max":1017,"o":"m 136 0 q 0 136 0 0 l 0 882 q 136 1017 0 1017 l 882 1017 q 1017 882 1017 1017 l 1017 136 q 882 0 1017 0 l 136 0 m 882 17 q 1000 136 1000 17 l 1000 882 q 882 1000 1000 1000 l 136 1000 q 17 882 18 1000 l 17 136 q 136 17 18 17 l 882 17 z "},"«":{"ha":1051,"x_min":9,"x_max":983,"o":"m 321 475 l 520 232 q 559 136 559 192 q 520 40 559 79 q 424 0 480 0 q 328 40 368 0 l 34 407 q 9 475 9 441 q 34 543 9 509 l 328 910 q 424 949 368 949 q 520 910 480 949 q 559 814 559 870 q 520 718 559 758 l 321 475 m 745 475 l 944 232 q 983 136 983 192 q 944 40 983 79 q 848 0 904 0 q 752 40 791 0 l 458 407 q 433 475 433 441 q 458 543 433 509 l 752 910 q 848 949 791 949 q 944 910 904 949 q 983 814 983 870 q 944 718 983 758 l 745 475 z "},"¬":{"ha":1119,"x_min":0,"x_max":1017,"o":"m 136 0 q 0 136 0 0 l 0 882 q 136 1017 0 1017 l 882 1017 q 1017 882 1017 1017 l 1017 136 q 882 0 1017 0 l 136 0 m 882 17 q 1000 136 1000 17 l 1000 882 q 882 1000 1000 1000 l 136 1000 q 17 882 18 1000 l 17 136 q 136 17 18 17 l 882 17 z "},"®":{"ha":1017,"x_min":0,"x_max":882,"o":"m 305 899 q 331 924 305 899 q 458 949 356 949 q 602 890 543 949 q 629 858 617 875 q 644 814 644 840 q 625 766 644 786 q 576 746 605 746 q 529 766 549 746 l 506 794 q 458 814 486 814 q 410 794 430 814 q 390 746 390 774 l 390 543 q 370 495 390 515 q 322 475 351 475 q 274 495 294 475 q 254 543 254 515 l 254 746 q 305 899 254 848 m 441 1017 q 225 928 315 1017 q 136 712 136 838 q 225 496 136 586 q 441 407 315 407 q 656 496 567 407 q 746 712 746 586 q 656 928 746 838 q 441 1017 567 1017 m 441 1153 q 752 1024 623 1153 q 882 712 882 895 q 752 400 882 530 q 441 271 623 271 q 129 400 258 271 q 0 712 0 530 q 129 1024 0 895 q 441 1153 258 1153 z "},"¯":{"ha":1119,"x_min":0,"x_max":1017,"o":"m 136 0 q 0 136 0 0 l 0 882 q 136 1017 0 1017 l 882 1017 q 1017 882 1017 1017 l 1017 136 q 882 0 1017 0 l 136 0 m 882 17 q 1000 136 1000 17 l 1000 882 q 882 1000 1000 1000 l 136 1000 q 17 882 18 1000 l 17 136 q 136 17 18 17 l 882 17 z "},"°":{"ha":949,"x_min":0,"x_max":814,"o":"m 407 271 q 119 390 238 271 q 0 678 0 509 q 119 966 0 847 q 407 1085 238 1085 q 695 966 576 1085 q 814 678 814 847 q 695 390 814 509 q 407 271 576 271 m 407 543 q 503 582 463 543 q 543 678 543 622 q 503 774 543 734 q 407 814 463 814 q 311 774 351 814 q 271 678 271 734 q 311 582 271 622 q 407 543 351 543 z "},"±":{"ha":1119,"x_min":0,"x_max":1017,"o":"m 136 0 q 0 136 0 0 l 0 882 q 136 1017 0 1017 l 882 1017 q 1017 882 1017 1017 l 1017 136 q 882 0 1017 0 l 136 0 m 882 17 q 1000 136 1000 17 l 1000 882 q 882 1000 1000 1000 l 136 1000 q 17 882 18 1000 l 17 136 q 136 17 18 17 l 882 17 z "},"²":{"ha":1119,"x_min":0,"x_max":1017,"o":"m 136 0 q 0 136 0 0 l 0 882 q 136 1017 0 1017 l 882 1017 q 1017 882 1017 1017 l 1017 136 q 882 0 1017 0 l 136 0 m 882 17 q 1000 136 1000 17 l 1000 882 q 882 1000 1000 1000 l 136 1000 q 17 882 18 1000 l 17 136 q 136 17 18 17 l 882 17 z "},"³":{"ha":1119,"x_min":0,"x_max":1017,"o":"m 136 0 q 0 136 0 0 l 0 882 q 136 1017 0 1017 l 882 1017 q 1017 882 1017 1017 l 1017 136 q 882 0 1017 0 l 136 0 m 882 17 q 1000 136 1000 17 l 1000 882 q 882 1000 1000 1000 l 136 1000 q 17 882 18 1000 l 17 136 q 136 17 18 17 l 882 17 z "},"´":{"ha":814,"x_min":0,"x_max":678,"o":"m 232 1193 q 136 1153 170 1153 q 40 1193 79 1153 q 0 1289 0 1232 q 40 1385 0 1345 l 447 1656 q 543 1695 509 1695 q 638 1656 599 1695 q 678 1560 678 1616 q 639 1464 678 1503 l 232 1193 z "},"µ":{"ha":949,"x_min":0,"x_max":814,"o":"m 271 407 q 311 311 271 351 q 407 271 351 271 q 503 311 463 271 q 543 407 543 351 l 543 814 q 582 910 543 870 q 678 949 622 949 q 774 910 734 949 q 814 814 814 870 l 814 136 q 774 40 814 79 q 678 0 734 0 q 583 39 623 0 q 407 0 503 0 q 271 22 334 0 l 271 -271 q 232 -367 271 -328 q 136 -407 192 -407 q 40 -367 79 -407 q 0 -271 0 -328 l 0 814 q 40 910 0 870 q 136 949 79 949 q 232 910 192 949 q 271 814 271 870 l 271 407 z "},"¶":{"ha":1085,"x_min":0,"x_max":949,"o":"m 610 814 l 610 136 q 571 40 610 79 q 475 0 531 0 q 379 40 418 0 q 339 136 339 79 l 339 407 q 99 506 199 407 q 0 746 0 606 q 99 986 0 886 q 339 1085 199 1085 l 814 1085 q 910 1045 870 1085 q 949 949 949 1006 l 949 136 q 910 40 949 79 q 814 0 870 0 q 718 40 758 0 q 678 136 678 79 l 678 814 l 610 814 z "},"·":{"ha":407,"x_min":0,"x_max":271,"o":"m 136 407 q 40 447 79 407 q 0 543 0 486 q 40 638 0 599 q 136 678 79 678 q 232 638 192 678 q 271 543 271 599 q 232 447 271 486 q 136 407 192 407 z "},"∙":{"ha":407,"x_min":0,"x_max":271,"o":"m 136 407 q 40 447 79 407 q 0 543 0 486 q 40 638 0 599 q 136 678 79 678 q 232 638 192 678 q 271 543 271 599 q 232 447 271 486 q 136 407 192 407 z "},"¸":{"ha":678,"x_min":0,"x_max":543,"o":"m 136 -136 q 232 -96 192 -136 q 271 0 271 -56 q 311 96 271 56 q 407 136 351 136 q 503 96 463 136 q 543 0 543 56 q 424 -288 543 -169 q 136 -407 304 -407 q 40 -367 79 -407 q 0 -271 0 -328 q 40 -175 0 -215 q 136 -136 79 -136 z "},"¹":{"ha":1119,"x_min":0,"x_max":1017,"o":"m 136 0 q 0 136 0 0 l 0 882 q 136 1017 0 1017 l 882 1017 q 1017 882 1017 1017 l 1017 136 q 882 0 1017 0 l 136 0 m 882 17 q 1000 136 1000 17 l 1000 882 q 882 1000 1000 1000 l 136 1000 q 17 882 18 1000 l 17 136 q 136 17 18 17 l 882 17 z "},"º":{"ha":1119,"x_min":0,"x_max":1017,"o":"m 136 0 q 0 136 0 0 l 0 882 q 136 1017 0 1017 l 882 1017 q 1017 882 1017 1017 l 1017 136 q 882 0 1017 0 l 136 0 m 882 17 q 1000 136 1000 17 l 1000 882 q 882 1000 1000 1000 l 136 1000 q 17 882 18 1000 l 17 136 q 136 17 18 17 l 882 17 z "},"»":{"ha":1051,"x_min":9,"x_max":983,"o":"m 472 718 q 433 814 433 758 q 472 910 433 870 q 568 949 512 949 q 664 910 625 949 l 958 543 q 983 475 983 509 q 958 407 983 441 l 664 40 q 568 0 625 0 q 472 40 512 0 q 433 136 433 79 q 472 232 433 192 l 671 475 l 472 718 m 48 718 q 9 814 9 758 q 48 910 9 870 q 144 949 88 949 q 240 910 201 949 l 534 543 q 559 475 559 509 q 534 407 559 441 l 240 40 q 144 0 201 0 q 48 40 88 0 q 9 136 9 79 q 48 232 9 192 l 247 475 l 48 718 z "},"¼":{"ha":1119,"x_min":0,"x_max":1017,"o":"m 136 0 q 0 136 0 0 l 0 882 q 136 1017 0 1017 l 882 1017 q 1017 882 1017 1017 l 1017 136 q 882 0 1017 0 l 136 0 m 882 17 q 1000 136 1000 17 l 1000 882 q 882 1000 1000 1000 l 136 1000 q 17 882 18 1000 l 17 136 q 136 17 18 17 l 882 17 z "},"½":{"ha":1119,"x_min":0,"x_max":1017,"o":"m 136 0 q 0 136 0 0 l 0 882 q 136 1017 0 1017 l 882 1017 q 1017 882 1017 1017 l 1017 136 q 882 0 1017 0 l 136 0 m 882 17 q 1000 136 1000 17 l 1000 882 q 882 1000 1000 1000 l 136 1000 q 17 882 18 1000 l 17 136 q 136 17 18 17 l 882 17 z "},"¾":{"ha":1119,"x_min":0,"x_max":1017,"o":"m 136 0 q 0 136 0 0 l 0 882 q 136 1017 0 1017 l 882 1017 q 1017 882 1017 1017 l 1017 136 q 882 0 1017 0 l 136 0 m 882 17 q 1000 136 1000 17 l 1000 882 q 882 1000 1000 1000 l 136 1000 q 17 882 18 1000 l 17 136 q 136 17 18 17 l 882 17 z "},"¿":{"ha":814,"x_min":0,"x_max":678,"o":"m 339 1085 q 435 1045 395 1085 q 475 949 475 1006 q 435 853 475 893 q 339 814 395 814 q 243 853 283 814 q 203 949 203 893 q 243 1045 203 1006 q 339 1085 283 1085 m 339 678 q 435 638 395 678 q 475 543 475 599 q 435 447 475 486 q 339 407 395 407 q 291 387 311 407 q 271 339 271 367 q 291 291 271 311 q 339 271 311 271 q 387 291 367 271 q 407 339 407 311 q 447 435 407 395 q 543 475 486 475 q 638 435 599 475 q 678 339 678 395 q 579 99 678 199 q 339 0 479 0 q 99 99 199 0 q 0 339 0 199 q 99 579 0 479 q 339 678 199 678 z "},"À":{"ha":1221,"x_min":0,"x_max":1085,"o":"m 288 136 l 254 68 l 254 68 q 232 39 245 53 q 136 0 192 0 q 40 40 79 0 q 0 136 0 79 q 18 203 0 173 l 17 203 l 424 1017 l 425 1017 q 447 1045 433 1032 q 543 1085 486 1085 q 639 1045 599 1085 q 661 1017 652 1032 l 661 1017 l 1068 203 l 1067 203 q 1085 136 1085 173 q 1045 40 1085 79 q 949 0 1006 0 q 854 39 893 0 q 831 68 840 53 l 831 68 l 797 136 l 288 136 m 661 407 l 543 644 l 424 407 l 661 407 m 243 1464 q 203 1560 203 1503 q 243 1656 203 1616 q 339 1695 283 1695 q 435 1656 373 1695 l 842 1385 q 882 1289 882 1345 q 842 1193 882 1232 q 746 1153 802 1153 q 650 1193 712 1153 l 243 1464 z "},"Á":{"ha":1221,"x_min":0,"x_max":1085,"o":"m 288 136 l 254 68 l 254 68 q 232 39 245 53 q 136 0 192 0 q 40 40 79 0 q 0 136 0 79 q 18 203 0 173 l 17 203 l 424 1017 l 425 1017 q 447 1045 433 1032 q 543 1085 486 1085 q 639 1045 599 1085 q 661 1017 652 1032 l 661 1017 l 1068 203 l 1067 203 q 1085 136 1085 173 q 1045 40 1085 79 q 949 0 1006 0 q 854 39 893 0 q 831 68 840 53 l 831 68 l 797 136 l 288 136 m 661 407 l 543 644 l 424 407 l 661 407 m 435 1193 q 339 1153 373 1153 q 243 1193 283 1153 q 203 1289 203 1232 q 243 1385 203 1345 l 650 1656 q 746 1695 712 1695 q 842 1656 802 1695 q 882 1560 882 1616 q 842 1464 882 1503 l 435 1193 z "},"Â":{"ha":1221,"x_min":0,"x_max":1085,"o":"m 288 136 l 254 68 l 254 68 q 232 39 245 53 q 136 0 192 0 q 40 40 79 0 q 0 136 0 79 q 18 203 0 173 l 17 203 l 424 1017 l 425 1017 q 447 1045 433 1032 q 543 1085 486 1085 q 639 1045 599 1085 q 661 1017 652 1032 l 661 1017 l 1068 203 l 1067 203 q 1085 136 1085 173 q 1045 40 1085 79 q 949 0 1006 0 q 854 39 893 0 q 831 68 840 53 l 831 68 l 797 136 l 288 136 m 661 407 l 543 644 l 424 407 l 661 407 m 543 1379 l 334 1193 q 237 1153 294 1153 q 141 1193 181 1153 q 102 1289 102 1232 q 142 1385 102 1345 l 447 1656 q 543 1695 486 1695 q 639 1656 599 1695 l 944 1385 q 983 1289 983 1345 q 944 1193 983 1232 q 848 1153 904 1153 q 752 1193 791 1153 l 543 1379 z "},"Ã":{"ha":1221,"x_min":0,"x_max":1085,"o":"m 288 136 l 254 68 l 254 68 q 232 39 245 53 q 136 0 192 0 q 40 40 79 0 q 0 136 0 79 q 18 203 0 173 l 17 203 l 424 1017 l 425 1017 q 447 1045 433 1032 q 543 1085 486 1085 q 639 1045 599 1085 q 661 1017 652 1032 l 661 1017 l 1068 203 l 1067 203 q 1085 136 1085 173 q 1045 40 1085 79 q 949 0 1006 0 q 854 39 893 0 q 831 68 840 53 l 831 68 l 797 136 l 288 136 m 661 407 l 543 644 l 424 407 l 661 407 m 780 1492 q 820 1588 780 1548 q 916 1628 859 1628 q 1011 1588 972 1628 q 1051 1492 1051 1548 q 952 1252 1051 1352 q 712 1153 852 1153 q 492 1255 559 1153 q 421 1336 441 1316 q 373 1356 401 1356 q 325 1336 345 1356 q 305 1289 305 1316 q 266 1193 305 1232 q 170 1153 226 1153 q 74 1193 113 1153 q 34 1289 34 1232 q 133 1528 34 1429 q 373 1628 233 1628 q 593 1526 526 1628 q 664 1444 644 1464 q 712 1424 684 1424 q 760 1444 740 1424 q 780 1492 780 1464 z "},"Ä":{"ha":1221,"x_min":0,"x_max":1085,"o":"m 288 136 l 254 68 l 254 68 q 232 39 245 53 q 136 0 192 0 q 40 40 79 0 q 0 136 0 79 q 18 203 0 173 l 17 203 l 424 1017 l 425 1017 q 447 1045 433 1032 q 543 1085 486 1085 q 639 1045 599 1085 q 661 1017 652 1032 l 661 1017 l 1068 203 l 1067 203 q 1085 136 1085 173 q 1045 40 1085 79 q 949 0 1006 0 q 854 39 893 0 q 831 68 840 53 l 831 68 l 797 136 l 288 136 m 661 407 l 543 644 l 424 407 l 661 407 m 339 1221 q 243 1260 283 1221 q 203 1356 203 1300 q 243 1452 203 1413 q 339 1492 283 1492 q 435 1452 395 1492 q 475 1356 475 1413 q 435 1260 475 1300 q 339 1221 395 1221 m 746 1221 q 650 1260 690 1221 q 610 1356 610 1300 q 650 1452 610 1413 q 746 1492 690 1492 q 842 1452 802 1492 q 882 1356 882 1413 q 842 1260 882 1300 q 746 1221 802 1221 z "},"Å":{"ha":1221,"x_min":0,"x_max":1085,"o":"m 288 136 l 254 68 l 254 68 q 232 39 245 53 q 136 0 192 0 q 40 40 79 0 q 0 136 0 79 q 18 203 0 173 l 17 203 l 424 1017 l 425 1017 q 447 1045 433 1032 q 543 1085 486 1085 q 639 1045 599 1085 q 661 1017 652 1032 l 661 1017 l 1068 203 l 1067 203 q 1085 136 1085 173 q 1045 40 1085 79 q 949 0 1006 0 q 854 39 893 0 q 831 68 840 53 l 831 68 l 797 136 l 288 136 m 661 407 l 543 644 l 424 407 l 661 407 m 543 1221 q 447 1260 486 1221 q 407 1356 407 1300 q 447 1452 407 1413 q 543 1492 486 1492 q 638 1452 599 1492 q 678 1356 678 1413 q 638 1260 678 1300 q 543 1221 599 1221 z "},"Æ":{"ha":1492,"x_min":0,"x_max":1356,"o":"m 446 407 l 407 526 l 368 407 l 446 407 m 544 117 q 543 119 543 118 l 543 119 l 537 136 l 277 136 l 271 119 l 271 119 q 232 40 258 73 q 136 0 192 0 q 40 40 79 0 q 0 136 0 79 q 17 203 7 173 l 271 966 q 311 1045 284 1012 q 407 1085 351 1085 q 503 1045 463 1085 q 543 966 530 1012 l 543 964 q 583 1046 548 1011 q 678 1085 622 1085 l 1221 1085 q 1317 1045 1277 1085 q 1356 949 1356 1006 q 1317 853 1356 893 q 1221 814 1277 814 l 814 814 l 814 678 l 1085 678 q 1181 638 1141 678 q 1221 543 1221 599 q 1181 447 1221 486 q 1085 407 1141 407 l 814 407 l 814 271 l 1221 271 q 1317 232 1277 271 q 1356 136 1356 192 q 1317 40 1356 79 q 1221 0 1277 0 l 678 0 q 583 40 622 0 q 544 117 549 73 z "},"Ç":{"ha":1119,"x_min":0,"x_max":983,"o":"m 407 16 q 159 159 268 50 q 0 543 0 318 q 159 926 0 767 q 543 1085 318 1085 q 926 926 767 1085 q 933 919 930 923 q 944 910 939 915 q 983 814 983 870 q 944 718 983 758 q 848 678 904 678 q 752 718 791 678 q 743 728 747 722 q 734 734 739 730 q 543 814 655 814 q 351 734 430 814 q 271 543 271 655 q 351 351 271 430 q 543 271 430 271 q 734 351 655 271 q 743 357 739 355 q 752 368 747 362 q 848 407 791 407 q 944 367 904 407 q 983 271 983 328 q 944 176 983 215 q 930 163 937 169 q 926 159 928 161 q 678 16 817 50 l 678 0 q 559 -288 678 -169 q 271 -407 440 -407 q 175 -367 215 -407 q 136 -271 136 -328 q 175 -175 136 -215 q 271 -136 215 -136 q 367 -96 328 -136 q 407 0 407 -56 l 407 16 z "},"È":{"ha":949,"x_min":0,"x_max":814,"o":"m 543 678 q 638 638 599 678 q 678 543 678 599 q 638 447 678 486 q 543 407 599 407 l 271 407 l 271 271 l 678 271 q 774 232 734 271 q 814 136 814 192 q 774 40 814 79 q 678 0 734 0 l 136 0 q 40 40 79 0 q 0 136 0 79 l 0 949 q 40 1045 0 1006 q 136 1085 79 1085 l 678 1085 q 774 1045 734 1085 q 814 949 814 1006 q 774 853 814 893 q 678 814 734 814 l 271 814 l 271 678 l 543 678 m 108 1464 q 68 1560 68 1503 q 107 1656 68 1616 q 203 1695 147 1695 q 300 1656 237 1695 l 707 1385 q 746 1289 746 1345 q 706 1193 746 1232 q 610 1153 667 1153 q 515 1193 576 1153 l 108 1464 z "},"É":{"ha":949,"x_min":0,"x_max":814,"o":"m 543 678 q 638 638 599 678 q 678 543 678 599 q 638 447 678 486 q 543 407 599 407 l 271 407 l 271 271 l 678 271 q 774 232 734 271 q 814 136 814 192 q 774 40 814 79 q 678 0 734 0 l 136 0 q 40 40 79 0 q 0 136 0 79 l 0 949 q 40 1045 0 1006 q 136 1085 79 1085 l 678 1085 q 774 1045 734 1085 q 814 949 814 1006 q 774 853 814 893 q 678 814 734 814 l 271 814 l 271 678 l 543 678 m 300 1193 q 203 1153 237 1153 q 107 1193 147 1153 q 68 1289 68 1232 q 108 1385 68 1345 l 515 1656 q 610 1695 576 1695 q 706 1656 667 1695 q 746 1560 746 1616 q 707 1464 746 1503 l 300 1193 z "},"Ê":{"ha":949,"x_min":-34,"x_max":848,"o":"m 543 678 q 638 638 599 678 q 678 543 678 599 q 638 447 678 486 q 543 407 599 407 l 271 407 l 271 271 l 678 271 q 774 232 734 271 q 814 136 814 192 q 774 40 814 79 q 678 0 734 0 l 136 0 q 40 40 79 0 q 0 136 0 79 l 0 949 q 40 1045 0 1006 q 136 1085 79 1085 l 678 1085 q 774 1045 734 1085 q 814 949 814 1006 q 774 853 814 893 q 678 814 734 814 l 271 814 l 271 678 l 543 678 m 408 1379 l 198 1193 q 102 1153 158 1153 q 6 1193 45 1153 q -34 1289 -34 1232 q 6 1385 -34 1345 l 311 1656 q 407 1695 351 1695 q 503 1656 463 1695 l 808 1385 q 848 1289 848 1345 q 808 1193 848 1232 q 712 1153 768 1153 q 616 1193 656 1153 l 408 1379 z "},"Ë":{"ha":949,"x_min":0,"x_max":814,"o":"m 543 678 q 638 638 599 678 q 678 543 678 599 q 638 447 678 486 q 543 407 599 407 l 271 407 l 271 271 l 678 271 q 774 232 734 271 q 814 136 814 192 q 774 40 814 79 q 678 0 734 0 l 136 0 q 40 40 79 0 q 0 136 0 79 l 0 949 q 40 1045 0 1006 q 136 1085 79 1085 l 678 1085 q 774 1045 734 1085 q 814 949 814 1006 q 774 853 814 893 q 678 814 734 814 l 271 814 l 271 678 l 543 678 m 203 1221 q 107 1260 147 1221 q 68 1356 68 1300 q 107 1452 68 1413 q 203 1492 147 1492 q 299 1452 260 1492 q 339 1356 339 1413 q 299 1260 339 1300 q 203 1221 260 1221 m 610 1221 q 514 1260 554 1221 q 475 1356 475 1300 q 514 1452 475 1413 q 610 1492 554 1492 q 706 1452 667 1492 q 746 1356 746 1413 q 706 1260 746 1300 q 610 1221 667 1221 z "},"Ì":{"ha":407,"x_min":-203,"x_max":475,"o":"m 271 136 q 232 40 271 79 q 136 0 192 0 q 40 40 79 0 q 0 136 0 79 l 0 949 q 40 1045 0 1006 q 136 1085 79 1085 q 232 1045 192 1085 q 271 949 271 1006 l 271 136 m -163 1464 q -203 1560 -203 1503 q -164 1656 -203 1616 q -68 1695 -124 1695 q 28 1656 -34 1695 l 435 1385 q 475 1289 475 1345 q 435 1193 475 1232 q 339 1153 395 1153 q 243 1193 305 1153 l -163 1464 z "},"Í":{"ha":407,"x_min":-203,"x_max":475,"o":"m 271 136 q 232 40 271 79 q 136 0 192 0 q 40 40 79 0 q 0 136 0 79 l 0 949 q 40 1045 0 1006 q 136 1085 79 1085 q 232 1045 192 1085 q 271 949 271 1006 l 271 136 m 28 1193 q -68 1153 -34 1153 q -164 1193 -124 1153 q -203 1289 -203 1232 q -163 1385 -203 1345 l 243 1656 q 339 1695 305 1695 q 435 1656 395 1695 q 475 1560 475 1616 q 435 1464 475 1503 l 28 1193 z "},"Î":{"ha":407,"x_min":-305,"x_max":576,"o":"m 271 136 q 232 40 271 79 q 136 0 192 0 q 40 40 79 0 q 0 136 0 79 l 0 949 q 40 1045 0 1006 q 136 1085 79 1085 q 232 1045 192 1085 q 271 949 271 1006 l 271 136 m 136 1379 l -73 1193 q -170 1153 -113 1153 q -266 1193 -226 1153 q -305 1289 -305 1232 q -265 1385 -305 1345 l 40 1656 q 136 1695 79 1695 q 232 1656 192 1695 l 537 1385 q 576 1289 576 1345 q 537 1193 576 1232 q 441 1153 497 1153 q 345 1193 385 1153 l 136 1379 z "},"Ï":{"ha":407,"x_min":-203,"x_max":475,"o":"m 271 136 q 232 40 271 79 q 136 0 192 0 q 40 40 79 0 q 0 136 0 79 l 0 949 q 40 1045 0 1006 q 136 1085 79 1085 q 232 1045 192 1085 q 271 949 271 1006 l 271 136 m -68 1221 q -164 1260 -124 1221 q -203 1356 -203 1300 q -164 1452 -203 1413 q -68 1492 -124 1492 q 28 1452 -12 1492 q 68 1356 68 1413 q 28 1260 68 1300 q -68 1221 -12 1221 m 339 1221 q 243 1260 283 1221 q 203 1356 203 1300 q 243 1452 203 1413 q 339 1492 283 1492 q 435 1452 395 1492 q 475 1356 475 1413 q 435 1260 475 1300 q 339 1221 395 1221 z "},"Ð":{"ha":949,"x_min":0,"x_max":814,"o":"m 339 407 l 271 407 l 271 271 q 463 351 384 271 q 543 543 543 430 q 463 734 543 655 q 271 814 384 814 l 271 678 l 339 678 q 435 638 395 678 q 475 543 475 599 q 435 447 475 486 q 339 407 395 407 m 271 0 l 136 0 q 40 40 79 0 q 0 136 0 79 l 0 949 q 40 1045 0 1006 q 136 1085 79 1085 l 271 1085 q 655 926 496 1085 q 814 543 814 767 q 655 159 814 318 q 271 0 496 0 z "},"Ñ":{"ha":949,"x_min":-102,"x_max":916,"o":"m 543 563 l 543 949 q 582 1045 543 1006 q 678 1085 622 1085 q 774 1045 734 1085 q 814 949 814 1006 l 814 136 q 774 40 814 79 q 678 0 734 0 q 583 40 622 0 q 560 68 569 53 l 559 68 l 271 522 l 271 136 q 232 40 271 79 q 136 0 192 0 q 40 40 79 0 q 0 136 0 79 l 0 949 q 40 1045 0 1006 q 136 1085 79 1085 q 232 1046 192 1085 q 254 1017 245 1032 l 254 1017 l 543 563 m 644 1492 q 684 1588 644 1548 q 780 1628 724 1628 q 876 1588 836 1628 q 916 1492 916 1548 q 816 1252 916 1352 q 576 1153 717 1153 q 356 1255 424 1153 q 285 1336 305 1316 q 237 1356 265 1356 q 190 1336 210 1356 q 170 1289 170 1316 q 130 1193 170 1232 q 34 1153 90 1153 q -62 1193 -22 1153 q -102 1289 -102 1232 q -2 1528 -102 1429 q 237 1628 97 1628 q 458 1526 390 1628 q 529 1444 509 1464 q 576 1424 549 1424 q 624 1444 604 1424 q 644 1492 644 1464 z "},"Ò":{"ha":1221,"x_min":0,"x_max":1085,"o":"m 543 0 q 159 159 318 0 q 0 543 0 318 q 159 926 0 767 q 543 1085 318 1085 q 926 926 767 1085 q 1085 543 1085 767 q 926 159 1085 318 q 543 0 767 0 m 543 271 q 734 351 655 271 q 814 543 814 430 q 734 734 814 655 q 543 814 655 814 q 351 734 430 814 q 271 543 271 655 q 351 351 271 430 q 543 271 430 271 m 243 1464 q 203 1560 203 1503 q 243 1656 203 1616 q 339 1695 283 1695 q 435 1656 373 1695 l 842 1385 q 882 1289 882 1345 q 842 1193 882 1232 q 746 1153 802 1153 q 650 1193 712 1153 l 243 1464 z "},"Ó":{"ha":1221,"x_min":0,"x_max":1085,"o":"m 543 0 q 159 159 318 0 q 0 543 0 318 q 159 926 0 767 q 543 1085 318 1085 q 926 926 767 1085 q 1085 543 1085 767 q 926 159 1085 318 q 543 0 767 0 m 543 271 q 734 351 655 271 q 814 543 814 430 q 734 734 814 655 q 543 814 655 814 q 351 734 430 814 q 271 543 271 655 q 351 351 271 430 q 543 271 430 271 m 435 1193 q 339 1153 373 1153 q 243 1193 283 1153 q 203 1289 203 1232 q 243 1385 203 1345 l 650 1656 q 746 1695 712 1695 q 842 1656 802 1695 q 882 1560 882 1616 q 842 1464 882 1503 l 435 1193 z "},"Ô":{"ha":1221,"x_min":0,"x_max":1085,"o":"m 543 0 q 159 159 318 0 q 0 543 0 318 q 159 926 0 767 q 543 1085 318 1085 q 926 926 767 1085 q 1085 543 1085 767 q 926 159 1085 318 q 543 0 767 0 m 543 271 q 734 351 655 271 q 814 543 814 430 q 734 734 814 655 q 543 814 655 814 q 351 734 430 814 q 271 543 271 655 q 351 351 271 430 q 543 271 430 271 m 543 1379 l 334 1193 q 237 1153 294 1153 q 141 1193 181 1153 q 102 1289 102 1232 q 142 1385 102 1345 l 447 1656 q 543 1695 486 1695 q 639 1656 599 1695 l 944 1385 q 983 1289 983 1345 q 944 1193 983 1232 q 848 1153 904 1153 q 752 1193 791 1153 l 543 1379 z "},"Õ":{"ha":1221,"x_min":0,"x_max":1085,"o":"m 543 0 q 159 159 318 0 q 0 543 0 318 q 159 926 0 767 q 543 1085 318 1085 q 926 926 767 1085 q 1085 543 1085 767 q 926 159 1085 318 q 543 0 767 0 m 543 271 q 734 351 655 271 q 814 543 814 430 q 734 734 814 655 q 543 814 655 814 q 351 734 430 814 q 271 543 271 655 q 351 351 271 430 q 543 271 430 271 m 780 1492 q 820 1588 780 1548 q 916 1628 859 1628 q 1011 1588 972 1628 q 1051 1492 1051 1548 q 952 1252 1051 1352 q 712 1153 852 1153 q 492 1255 559 1153 q 421 1336 441 1316 q 373 1356 401 1356 q 325 1336 345 1356 q 305 1289 305 1316 q 266 1193 305 1232 q 170 1153 226 1153 q 74 1193 113 1153 q 34 1289 34 1232 q 133 1528 34 1429 q 373 1628 233 1628 q 593 1526 526 1628 q 664 1444 644 1464 q 712 1424 684 1424 q 760 1444 740 1424 q 780 1492 780 1464 z "},"Ö":{"ha":1221,"x_min":0,"x_max":1085,"o":"m 543 0 q 159 159 318 0 q 0 543 0 318 q 159 926 0 767 q 543 1085 318 1085 q 926 926 767 1085 q 1085 543 1085 767 q 926 159 1085 318 q 543 0 767 0 m 543 271 q 734 351 655 271 q 814 543 814 430 q 734 734 814 655 q 543 814 655 814 q 351 734 430 814 q 271 543 271 655 q 351 351 271 430 q 543 271 430 271 m 339 1221 q 243 1260 283 1221 q 203 1356 203 1300 q 243 1452 203 1413 q 339 1492 283 1492 q 435 1452 395 1492 q 475 1356 475 1413 q 435 1260 475 1300 q 339 1221 395 1221 m 746 1221 q 650 1260 690 1221 q 610 1356 610 1300 q 650 1452 610 1413 q 746 1492 690 1492 q 842 1452 802 1492 q 882 1356 882 1413 q 842 1260 882 1300 q 746 1221 802 1221 z "},"×":{"ha":949,"x_min":0,"x_max":814,"o":"m 576 543 l 774 300 q 814 203 814 260 q 774 107 814 147 q 678 68 734 68 q 583 108 622 68 l 407 329 l 232 108 q 136 68 192 68 q 40 107 79 68 q 0 203 0 147 q 40 300 0 260 l 238 543 l 40 786 q 0 882 0 825 q 40 978 0 938 q 136 1017 79 1017 q 232 978 192 1017 l 407 756 l 583 978 q 678 1017 622 1017 q 774 978 734 1017 q 814 882 814 938 q 774 786 814 825 l 576 543 z "},"Ø":{"ha":1221,"x_min":0,"x_max":1085,"o":"m 529 271 l 543 271 q 734 351 655 271 q 814 543 814 430 q 790 656 814 604 l 529 271 m 298 422 l 559 813 q 543 814 551 814 q 351 734 430 814 q 271 543 271 655 q 298 422 271 477 m 946 905 q 1085 543 1085 752 q 926 159 1085 318 q 543 0 767 0 q 357 31 444 0 q 271 0 321 0 q 175 40 215 0 q 136 136 136 79 q 142 177 136 157 q 0 543 0 331 q 159 926 0 767 q 543 1085 318 1085 q 727 1055 641 1085 q 814 1085 764 1085 q 910 1045 870 1085 q 949 949 949 1006 q 946 905 949 924 z "},"Ù":{"ha":949,"x_min":0,"x_max":814,"o":"m 0 949 q 40 1045 0 1006 q 136 1085 79 1085 q 232 1045 192 1085 q 271 949 271 1006 l 271 407 q 311 311 271 351 q 407 271 351 271 q 503 311 463 271 q 543 407 543 351 l 543 949 q 582 1045 543 1006 q 678 1085 622 1085 q 774 1045 734 1085 q 814 949 814 1006 l 814 407 q 695 119 814 238 q 407 0 576 0 q 119 119 238 0 q 0 407 0 238 l 0 949 m 108 1464 q 68 1560 68 1503 q 107 1656 68 1616 q 203 1695 147 1695 q 300 1656 237 1695 l 707 1385 q 746 1289 746 1345 q 706 1193 746 1232 q 610 1153 667 1153 q 515 1193 576 1153 l 108 1464 z "},"Ú":{"ha":949,"x_min":0,"x_max":814,"o":"m 0 949 q 40 1045 0 1006 q 136 1085 79 1085 q 232 1045 192 1085 q 271 949 271 1006 l 271 407 q 311 311 271 351 q 407 271 351 271 q 503 311 463 271 q 543 407 543 351 l 543 949 q 582 1045 543 1006 q 678 1085 622 1085 q 774 1045 734 1085 q 814 949 814 1006 l 814 407 q 695 119 814 238 q 407 0 576 0 q 119 119 238 0 q 0 407 0 238 l 0 949 m 300 1193 q 203 1153 237 1153 q 107 1193 147 1153 q 68 1289 68 1232 q 108 1385 68 1345 l 515 1656 q 610 1695 576 1695 q 706 1656 667 1695 q 746 1560 746 1616 q 707 1464 746 1503 l 300 1193 z "},"Û":{"ha":949,"x_min":-34,"x_max":848,"o":"m 0 949 q 40 1045 0 1006 q 136 1085 79 1085 q 232 1045 192 1085 q 271 949 271 1006 l 271 407 q 311 311 271 351 q 407 271 351 271 q 503 311 463 271 q 543 407 543 351 l 543 949 q 582 1045 543 1006 q 678 1085 622 1085 q 774 1045 734 1085 q 814 949 814 1006 l 814 407 q 695 119 814 238 q 407 0 576 0 q 119 119 238 0 q 0 407 0 238 l 0 949 m 408 1379 l 198 1193 q 102 1153 158 1153 q 6 1193 45 1153 q -34 1289 -34 1232 q 6 1385 -34 1345 l 311 1656 q 407 1695 351 1695 q 503 1656 463 1695 l 808 1385 q 848 1289 848 1345 q 808 1193 848 1232 q 712 1153 768 1153 q 616 1193 656 1153 l 408 1379 z "},"Ü":{"ha":949,"x_min":0,"x_max":814,"o":"m 0 949 q 40 1045 0 1006 q 136 1085 79 1085 q 232 1045 192 1085 q 271 949 271 1006 l 271 407 q 311 311 271 351 q 407 271 351 271 q 503 311 463 271 q 543 407 543 351 l 543 949 q 582 1045 543 1006 q 678 1085 622 1085 q 774 1045 734 1085 q 814 949 814 1006 l 814 407 q 695 119 814 238 q 407 0 576 0 q 119 119 238 0 q 0 407 0 238 l 0 949 m 203 1221 q 107 1260 147 1221 q 68 1356 68 1300 q 107 1452 68 1413 q 203 1492 147 1492 q 299 1452 260 1492 q 339 1356 339 1413 q 299 1260 339 1300 q 203 1221 260 1221 m 610 1221 q 514 1260 554 1221 q 475 1356 475 1300 q 514 1452 475 1413 q 610 1492 554 1492 q 706 1452 667 1492 q 746 1356 746 1413 q 706 1260 746 1300 q 610 1221 667 1221 z "},"Ý":{"ha":949,"x_min":0,"x_max":814,"o":"m 271 491 l 239 538 l 17 865 q 0 949 0 893 q 40 1045 0 1006 q 136 1085 79 1085 q 232 1046 192 1085 q 254 1017 245 1032 l 254 1017 l 407 789 l 559 1017 l 560 1017 q 582 1046 569 1032 q 678 1085 622 1085 q 774 1045 734 1085 q 814 949 814 1006 q 797 865 814 893 l 574 538 l 543 491 l 543 136 q 503 40 543 79 q 407 0 463 0 q 311 40 351 0 q 271 136 271 79 l 271 491 m 300 1193 q 203 1153 237 1153 q 107 1193 147 1153 q 68 1289 68 1232 q 108 1385 68 1345 l 515 1656 q 610 1695 576 1695 q 706 1656 667 1695 q 746 1560 746 1616 q 707 1464 746 1503 l 300 1193 z "},"Þ":{"ha":949,"x_min":0,"x_max":814,"o":"m 475 610 l 271 610 l 271 475 l 475 475 q 523 495 503 475 q 543 543 543 515 q 523 590 543 570 q 475 610 503 610 m 271 882 l 475 882 q 714 782 615 882 q 814 543 814 683 q 714 303 814 402 q 475 203 615 203 l 271 203 l 271 136 q 232 40 271 79 q 136 0 192 0 q 40 40 79 0 q 0 136 0 79 l 0 949 q 40 1045 0 1006 q 136 1085 79 1085 q 232 1045 192 1085 q 271 949 271 1006 l 271 882 z "},"ß":{"ha":949,"x_min":0,"x_max":814,"o":"m 475 0 q 379 40 418 0 q 339 136 339 79 q 379 232 339 192 q 475 271 418 271 q 523 291 503 271 q 543 339 543 311 q 523 387 543 367 q 475 407 503 407 q 379 447 418 407 q 339 543 339 486 q 379 638 339 599 q 475 678 418 678 q 523 698 503 678 q 543 746 543 718 q 523 794 543 774 q 475 814 503 814 l 339 814 q 291 794 311 814 q 271 746 271 774 l 271 136 q 232 40 271 79 q 136 0 192 0 q 40 40 79 0 q 0 136 0 79 l 0 746 q 99 986 0 886 q 339 1085 199 1085 l 475 1085 q 714 986 615 1085 q 814 746 814 886 q 747 543 814 630 q 814 339 814 455 q 714 99 814 199 q 475 0 615 0 z "},"à":{"ha":1085,"x_min":0,"x_max":949,"o":"m 176 1329 q 136 1424 136 1368 q 175 1520 136 1480 q 271 1560 215 1560 q 368 1520 305 1560 l 774 1249 q 814 1153 814 1209 q 774 1057 814 1097 q 678 1017 734 1017 q 583 1057 644 1017 l 176 1329 m 475 271 q 618 331 559 271 q 678 475 678 391 q 618 618 678 559 q 475 678 559 678 q 331 618 391 678 q 271 475 271 559 q 331 331 271 391 q 475 271 391 271 m 703 57 q 475 0 601 0 q 139 139 278 0 q 0 475 0 278 q 136 810 0 671 q 475 949 271 949 q 814 814 678 949 q 949 475 949 678 l 949 136 q 910 40 949 79 q 814 0 870 0 q 718 40 758 0 q 703 57 709 48 z "},"á":{"ha":1085,"x_min":0,"x_max":949,"o":"m 368 1057 q 271 1017 305 1017 q 175 1057 215 1017 q 136 1153 136 1097 q 176 1249 136 1209 l 583 1520 q 678 1560 644 1560 q 774 1520 734 1560 q 814 1424 814 1480 q 774 1329 814 1368 l 368 1057 m 475 271 q 618 331 559 271 q 678 475 678 391 q 618 618 678 559 q 475 678 559 678 q 331 618 391 678 q 271 475 271 559 q 331 331 271 391 q 475 271 391 271 m 703 57 q 475 0 601 0 q 139 139 278 0 q 0 475 0 278 q 136 810 0 671 q 475 949 271 949 q 814 814 678 949 q 949 475 949 678 l 949 136 q 910 40 949 79 q 814 0 870 0 q 718 40 758 0 q 703 57 709 48 z "},"â":{"ha":1085,"x_min":0,"x_max":949,"o":"m 475 1243 l 266 1057 q 170 1017 226 1017 q 74 1057 113 1017 q 34 1153 34 1097 q 74 1249 34 1209 l 379 1520 q 475 1560 418 1560 q 571 1520 531 1560 l 876 1249 q 916 1153 916 1209 q 876 1057 916 1097 q 780 1017 836 1017 q 684 1057 724 1017 l 475 1243 m 475 271 q 618 331 559 271 q 678 475 678 391 q 618 618 678 559 q 475 678 559 678 q 331 618 391 678 q 271 475 271 559 q 331 331 271 391 q 475 271 391 271 m 703 57 q 475 0 601 0 q 139 139 278 0 q 0 475 0 278 q 136 810 0 671 q 475 949 271 949 q 814 814 678 949 q 949 475 949 678 l 949 136 q 910 40 949 79 q 814 0 870 0 q 718 40 758 0 q 703 57 709 48 z "},"ã":{"ha":1085,"x_min":-34,"x_max":983,"o":"m 712 1356 q 752 1452 712 1413 q 848 1492 791 1492 q 944 1452 904 1492 q 983 1356 983 1413 q 884 1117 983 1216 q 644 1017 785 1017 q 424 1119 492 1017 q 353 1201 373 1181 q 305 1221 333 1221 q 257 1201 277 1221 q 237 1153 237 1181 q 198 1057 237 1097 q 102 1017 158 1017 q 6 1057 45 1017 q -34 1153 -34 1097 q 65 1393 -34 1293 q 305 1492 165 1492 q 526 1390 458 1492 q 596 1309 576 1329 q 644 1289 616 1289 q 692 1309 672 1289 q 712 1356 712 1329 m 475 271 q 618 331 559 271 q 678 475 678 391 q 618 618 678 559 q 475 678 559 678 q 331 618 391 678 q 271 475 271 559 q 331 331 271 391 q 475 271 391 271 m 703 57 q 475 0 601 0 q 139 139 278 0 q 0 475 0 278 q 136 810 0 671 q 475 949 271 949 q 814 814 678 949 q 949 475 949 678 l 949 136 q 910 40 949 79 q 814 0 870 0 q 718 40 758 0 q 703 57 709 48 z "},"ä":{"ha":1085,"x_min":0,"x_max":949,"o":"m 271 1085 q 175 1125 215 1085 q 136 1221 136 1164 q 175 1317 136 1277 q 271 1356 215 1356 q 367 1317 328 1356 q 407 1221 407 1277 q 367 1125 407 1164 q 271 1085 328 1085 m 678 1085 q 582 1125 622 1085 q 543 1221 543 1164 q 582 1317 543 1277 q 678 1356 622 1356 q 774 1317 734 1356 q 814 1221 814 1277 q 774 1125 814 1164 q 678 1085 734 1085 m 475 271 q 618 331 559 271 q 678 475 678 391 q 618 618 678 559 q 475 678 559 678 q 331 618 391 678 q 271 475 271 559 q 331 331 271 391 q 475 271 391 271 m 703 57 q 475 0 601 0 q 139 139 278 0 q 0 475 0 278 q 136 810 0 671 q 475 949 271 949 q 814 814 678 949 q 949 475 949 678 l 949 136 q 910 40 949 79 q 814 0 870 0 q 718 40 758 0 q 703 57 709 48 z "},"å":{"ha":1085,"x_min":0,"x_max":949,"o":"m 475 1085 q 379 1125 418 1085 q 339 1221 339 1164 q 379 1317 339 1277 q 475 1356 418 1356 q 571 1317 531 1356 q 610 1221 610 1277 q 571 1125 610 1164 q 475 1085 531 1085 m 475 271 q 618 331 559 271 q 678 475 678 391 q 618 618 678 559 q 475 678 559 678 q 331 618 391 678 q 271 475 271 559 q 331 331 271 391 q 475 271 391 271 m 703 57 q 475 0 601 0 q 139 139 278 0 q 0 475 0 278 q 136 810 0 671 q 475 949 271 949 q 814 814 678 949 q 949 475 949 678 l 949 136 q 910 40 949 79 q 814 0 870 0 q 718 40 758 0 q 703 57 709 48 z "},"æ":{"ha":1763,"x_min":0,"x_max":1628,"o":"m 475 271 q 618 331 559 271 q 678 475 678 391 q 618 618 678 559 q 475 678 559 678 q 331 618 391 678 q 271 475 271 559 q 331 331 271 391 q 475 271 391 271 m 1304 610 q 1297 618 1301 614 q 1153 678 1237 678 q 1009 618 1069 678 q 1002 610 1005 614 l 1304 610 m 703 57 q 475 0 601 0 q 139 139 278 0 q 0 475 0 278 q 139 810 0 671 q 475 949 278 949 q 810 810 671 949 q 814 807 812 808 q 817 810 815 808 q 1153 949 956 949 q 1489 810 1350 949 q 1628 475 1628 671 q 1588 379 1628 418 q 1492 339 1548 339 l 1002 339 q 1009 331 1005 335 q 1153 271 1069 271 l 1356 271 q 1452 232 1413 271 q 1492 136 1492 192 q 1452 40 1492 79 q 1356 0 1413 0 l 1153 0 q 924 57 1027 0 q 910 40 918 48 q 814 0 870 0 q 718 40 758 0 q 703 57 709 48 z "},"ç":{"ha":1017,"x_min":0,"x_max":882,"o":"m 340 18 q 139 139 228 50 q 0 475 0 278 q 139 810 0 671 q 475 949 278 949 q 810 810 671 949 q 839 777 828 793 q 842 774 840 776 q 882 678 882 734 q 842 582 882 622 q 746 543 802 543 q 650 583 690 543 q 627 612 636 596 q 618 618 623 614 q 475 678 559 678 q 331 618 391 678 q 271 475 271 559 q 331 331 271 391 q 475 271 391 271 q 618 331 559 271 q 628 338 623 336 q 650 368 637 354 q 746 407 690 407 q 842 367 802 407 q 882 271 882 328 q 842 176 882 215 q 840 173 841 174 q 810 139 828 157 q 609 18 722 50 q 610 0 610 9 q 491 -288 610 -169 q 203 -407 372 -407 q 107 -367 147 -407 q 68 -271 68 -328 q 107 -175 68 -215 q 203 -136 147 -136 q 299 -96 260 -136 q 339 0 339 -56 q 340 18 339 9 z "},"è":{"ha":1085,"x_min":0,"x_max":949,"o":"m 323 339 q 331 331 327 335 q 475 271 391 271 l 678 271 q 774 232 734 271 q 814 136 814 192 q 774 40 814 79 q 678 0 734 0 l 475 0 q 139 139 278 0 q 0 475 0 278 q 139 810 0 671 q 475 949 278 949 q 810 810 671 949 q 949 475 949 671 q 910 379 949 418 q 814 339 870 339 l 323 339 m 626 610 q 618 618 623 614 q 475 678 559 678 q 331 618 391 678 q 323 610 327 614 l 626 610 m 176 1329 q 136 1424 136 1368 q 175 1520 136 1480 q 271 1560 215 1560 q 368 1520 305 1560 l 774 1249 q 814 1153 814 1209 q 774 1057 814 1097 q 678 1017 734 1017 q 583 1057 644 1017 l 176 1329 z "},"é":{"ha":1085,"x_min":0,"x_max":949,"o":"m 323 339 q 331 331 327 335 q 475 271 391 271 l 678 271 q 774 232 734 271 q 814 136 814 192 q 774 40 814 79 q 678 0 734 0 l 475 0 q 139 139 278 0 q 0 475 0 278 q 139 810 0 671 q 475 949 278 949 q 810 810 671 949 q 949 475 949 671 q 910 379 949 418 q 814 339 870 339 l 323 339 m 626 610 q 618 618 623 614 q 475 678 559 678 q 331 618 391 678 q 323 610 327 614 l 626 610 m 368 1057 q 271 1017 305 1017 q 175 1057 215 1017 q 136 1153 136 1097 q 176 1249 136 1209 l 583 1520 q 678 1560 644 1560 q 774 1520 734 1560 q 814 1424 814 1480 q 774 1329 814 1368 l 368 1057 z "},"ê":{"ha":1085,"x_min":0,"x_max":949,"o":"m 323 339 q 331 331 327 335 q 475 271 391 271 l 678 271 q 774 232 734 271 q 814 136 814 192 q 774 40 814 79 q 678 0 734 0 l 475 0 q 139 139 278 0 q 0 475 0 278 q 139 810 0 671 q 475 949 278 949 q 810 810 671 949 q 949 475 949 671 q 910 379 949 418 q 814 339 870 339 l 323 339 m 626 610 q 618 618 623 614 q 475 678 559 678 q 331 618 391 678 q 323 610 327 614 l 626 610 m 475 1243 l 266 1057 q 170 1017 226 1017 q 74 1057 113 1017 q 34 1153 34 1097 q 74 1249 34 1209 l 379 1520 q 475 1560 418 1560 q 571 1520 531 1560 l 876 1249 q 916 1153 916 1209 q 876 1057 916 1097 q 780 1017 836 1017 q 684 1057 724 1017 l 475 1243 z "},"ë":{"ha":1085,"x_min":0,"x_max":949,"o":"m 323 339 q 331 331 327 335 q 475 271 391 271 l 678 271 q 774 232 734 271 q 814 136 814 192 q 774 40 814 79 q 678 0 734 0 l 475 0 q 139 139 278 0 q 0 475 0 278 q 139 810 0 671 q 475 949 278 949 q 810 810 671 949 q 949 475 949 671 q 910 379 949 418 q 814 339 870 339 l 323 339 m 626 610 q 618 618 623 614 q 475 678 559 678 q 331 618 391 678 q 323 610 327 614 l 626 610 m 271 1085 q 175 1125 215 1085 q 136 1221 136 1164 q 175 1317 136 1277 q 271 1356 215 1356 q 367 1317 328 1356 q 407 1221 407 1277 q 367 1125 407 1164 q 271 1085 328 1085 m 678 1085 q 582 1125 622 1085 q 543 1221 543 1164 q 582 1317 543 1277 q 678 1356 622 1356 q 774 1317 734 1356 q 814 1221 814 1277 q 774 1125 814 1164 q 678 1085 734 1085 z "},"ì":{"ha":407,"x_min":-203,"x_max":475,"o":"m 271 136 q 232 40 271 79 q 136 0 192 0 q 40 40 79 0 q 0 136 0 79 l 0 814 q 40 910 0 870 q 136 949 79 949 q 232 910 192 949 q 271 814 271 870 l 271 136 m -163 1329 q -203 1424 -203 1368 q -164 1520 -203 1480 q -68 1560 -124 1560 q 28 1520 -34 1560 l 435 1249 q 475 1153 475 1209 q 435 1057 475 1097 q 339 1017 395 1017 q 243 1057 305 1017 l -163 1329 z "},"í":{"ha":407,"x_min":-203,"x_max":475,"o":"m 271 136 q 232 40 271 79 q 136 0 192 0 q 40 40 79 0 q 0 136 0 79 l 0 814 q 40 910 0 870 q 136 949 79 949 q 232 910 192 949 q 271 814 271 870 l 271 136 m 28 1057 q -68 1017 -34 1017 q -164 1057 -124 1017 q -203 1153 -203 1097 q -163 1249 -203 1209 l 243 1520 q 339 1560 305 1560 q 435 1520 395 1560 q 475 1424 475 1480 q 435 1329 475 1368 l 28 1057 z "},"î":{"ha":407,"x_min":-305,"x_max":576,"o":"m 271 136 q 232 40 271 79 q 136 0 192 0 q 40 40 79 0 q 0 136 0 79 l 0 814 q 40 910 0 870 q 136 949 79 949 q 232 910 192 949 q 271 814 271 870 l 271 136 m 136 1243 l -73 1057 q -170 1017 -113 1017 q -266 1057 -226 1017 q -305 1153 -305 1097 q -265 1249 -305 1209 l 40 1520 q 136 1560 79 1560 q 232 1520 192 1560 l 537 1249 q 576 1153 576 1209 q 537 1057 576 1097 q 441 1017 497 1017 q 345 1057 385 1017 l 136 1243 z "},"ï":{"ha":407,"x_min":-203,"x_max":475,"o":"m 271 136 q 232 40 271 79 q 136 0 192 0 q 40 40 79 0 q 0 136 0 79 l 0 814 q 40 910 0 870 q 136 949 79 949 q 232 910 192 949 q 271 814 271 870 l 271 136 m -68 1085 q -164 1125 -124 1085 q -203 1221 -203 1164 q -164 1317 -203 1277 q -68 1356 -124 1356 q 28 1317 -12 1356 q 68 1221 68 1277 q 28 1125 68 1164 q -68 1085 -12 1085 m 339 1085 q 243 1125 283 1085 q 203 1221 203 1164 q 243 1317 203 1277 q 339 1356 283 1356 q 435 1317 395 1356 q 475 1221 475 1277 q 435 1125 475 1164 q 339 1085 395 1085 z "},"ð":{"ha":1221,"x_min":0,"x_max":1085,"o":"m 475 271 q 618 331 559 271 q 678 475 678 391 l 678 677 l 475 678 q 331 618 391 678 q 271 475 271 559 q 331 331 271 391 q 475 271 391 271 m 949 678 l 949 136 q 910 40 949 79 q 814 0 870 0 q 718 40 758 0 q 703 57 709 48 q 475 0 601 0 q 139 139 278 0 q 0 475 0 278 q 139 810 0 671 q 475 949 278 949 l 678 949 q 718 1045 678 1006 q 814 1085 758 1085 q 910 1045 870 1085 q 949 949 949 1006 q 1045 910 1006 949 q 1085 814 1085 870 q 1045 718 1085 758 q 949 678 1006 678 z "},"ñ":{"ha":949,"x_min":-102,"x_max":916,"o":"m 644 1356 q 684 1452 644 1413 q 780 1492 724 1492 q 876 1452 836 1492 q 916 1356 916 1413 q 816 1117 916 1216 q 576 1017 717 1017 q 356 1119 424 1017 q 285 1201 305 1181 q 237 1221 265 1221 q 190 1201 210 1221 q 170 1153 170 1181 q 130 1057 170 1097 q 34 1017 90 1017 q -62 1057 -22 1017 q -102 1153 -102 1097 q -2 1393 -102 1293 q 237 1492 97 1492 q 458 1390 390 1492 q 529 1309 509 1329 q 576 1289 549 1289 q 624 1309 604 1289 q 644 1356 644 1329 m 119 831 q 178 890 119 831 q 407 949 237 949 q 695 830 576 949 q 814 543 814 711 l 814 136 q 774 40 814 79 q 678 0 734 0 q 582 40 622 0 q 543 136 543 79 l 543 543 q 503 638 543 599 q 407 678 463 678 q 311 638 351 678 q 271 543 271 599 l 271 136 q 232 40 271 79 q 136 0 192 0 q 40 40 79 0 q 0 136 0 79 l 0 543 q 119 831 0 712 z "},"ò":{"ha":1085,"x_min":0,"x_max":949,"o":"m 475 0 q 139 139 278 0 q 0 475 0 278 q 139 810 0 671 q 475 949 278 949 q 810 810 671 949 q 949 475 949 671 q 810 139 949 278 q 475 0 671 0 m 475 271 q 618 331 559 271 q 678 475 678 391 q 618 618 678 559 q 475 678 559 678 q 331 618 391 678 q 271 475 271 559 q 331 331 271 391 q 475 271 391 271 m 176 1329 q 136 1424 136 1368 q 175 1520 136 1480 q 271 1560 215 1560 q 368 1520 305 1560 l 774 1249 q 814 1153 814 1209 q 774 1057 814 1097 q 678 1017 734 1017 q 583 1057 644 1017 l 176 1329 z "},"ó":{"ha":1085,"x_min":0,"x_max":949,"o":"m 475 0 q 139 139 278 0 q 0 475 0 278 q 139 810 0 671 q 475 949 278 949 q 810 810 671 949 q 949 475 949 671 q 810 139 949 278 q 475 0 671 0 m 475 271 q 618 331 559 271 q 678 475 678 391 q 618 618 678 559 q 475 678 559 678 q 331 618 391 678 q 271 475 271 559 q 331 331 271 391 q 475 271 391 271 m 368 1057 q 271 1017 305 1017 q 175 1057 215 1017 q 136 1153 136 1097 q 176 1249 136 1209 l 583 1520 q 678 1560 644 1560 q 774 1520 734 1560 q 814 1424 814 1480 q 774 1329 814 1368 l 368 1057 z "},"ô":{"ha":1085,"x_min":0,"x_max":949,"o":"m 475 0 q 139 139 278 0 q 0 475 0 278 q 139 810 0 671 q 475 949 278 949 q 810 810 671 949 q 949 475 949 671 q 810 139 949 278 q 475 0 671 0 m 475 271 q 618 331 559 271 q 678 475 678 391 q 618 618 678 559 q 475 678 559 678 q 331 618 391 678 q 271 475 271 559 q 331 331 271 391 q 475 271 391 271 m 475 1243 l 266 1057 q 170 1017 226 1017 q 74 1057 113 1017 q 34 1153 34 1097 q 74 1249 34 1209 l 379 1520 q 475 1560 418 1560 q 571 1520 531 1560 l 876 1249 q 916 1153 916 1209 q 876 1057 916 1097 q 780 1017 836 1017 q 684 1057 724 1017 l 475 1243 z "},"õ":{"ha":1085,"x_min":-34,"x_max":983,"o":"m 475 0 q 139 139 278 0 q 0 475 0 278 q 139 810 0 671 q 475 949 278 949 q 810 810 671 949 q 949 475 949 671 q 810 139 949 278 q 475 0 671 0 m 475 271 q 618 331 559 271 q 678 475 678 391 q 618 618 678 559 q 475 678 559 678 q 331 618 391 678 q 271 475 271 559 q 331 331 271 391 q 475 271 391 271 m 712 1356 q 752 1452 712 1413 q 848 1492 791 1492 q 944 1452 904 1492 q 983 1356 983 1413 q 884 1117 983 1216 q 644 1017 785 1017 q 424 1119 492 1017 q 353 1201 373 1181 q 305 1221 333 1221 q 257 1201 277 1221 q 237 1153 237 1181 q 198 1057 237 1097 q 102 1017 158 1017 q 6 1057 45 1017 q -34 1153 -34 1097 q 65 1393 -34 1293 q 305 1492 165 1492 q 526 1390 458 1492 q 596 1309 576 1329 q 644 1289 616 1289 q 692 1309 672 1289 q 712 1356 712 1329 z "},"ö":{"ha":1085,"x_min":0,"x_max":949,"o":"m 475 0 q 139 139 278 0 q 0 475 0 278 q 139 810 0 671 q 475 949 278 949 q 810 810 671 949 q 949 475 949 671 q 810 139 949 278 q 475 0 671 0 m 475 271 q 618 331 559 271 q 678 475 678 391 q 618 618 678 559 q 475 678 559 678 q 331 618 391 678 q 271 475 271 559 q 331 331 271 391 q 475 271 391 271 m 271 1085 q 175 1125 215 1085 q 136 1221 136 1164 q 175 1317 136 1277 q 271 1356 215 1356 q 367 1317 328 1356 q 407 1221 407 1277 q 367 1125 407 1164 q 271 1085 328 1085 m 678 1085 q 582 1125 622 1085 q 543 1221 543 1164 q 582 1317 543 1277 q 678 1356 622 1356 q 774 1317 734 1356 q 814 1221 814 1277 q 774 1125 814 1164 q 678 1085 734 1085 z "},"÷":{"ha":814,"x_min":0,"x_max":678,"o":"m 543 678 q 638 638 599 678 q 678 543 678 599 q 638 447 678 486 q 543 407 599 407 l 136 407 q 40 447 79 407 q 0 543 0 486 q 40 638 0 599 q 136 678 79 678 l 543 678 m 339 746 q 243 786 283 746 q 203 882 203 825 q 243 978 203 938 q 339 1017 283 1017 q 435 978 395 1017 q 475 882 475 938 q 435 786 475 825 q 339 746 395 746 m 339 68 q 243 107 283 68 q 203 203 203 147 q 243 299 203 260 q 339 339 283 339 q 435 299 395 339 q 475 203 475 260 q 435 107 475 147 q 339 68 395 68 z "},"ø":{"ha":1085,"x_min":0,"x_max":949,"o":"m 485 271 q 618 331 562 275 q 678 475 678 391 q 675 509 678 493 l 485 271 m 274 439 l 465 678 q 331 618 387 675 q 271 475 271 559 q 274 439 271 456 m 865 747 q 949 475 949 629 q 810 139 949 278 q 475 0 671 0 q 294 35 377 0 q 203 0 256 0 q 107 40 147 0 q 68 136 68 79 q 85 202 68 172 q 0 475 0 321 q 139 810 0 671 q 475 949 278 949 q 656 916 572 949 q 746 949 694 949 q 842 910 802 949 q 882 814 882 870 q 865 747 882 777 z "},"ù":{"ha":949,"x_min":0,"x_max":814,"o":"m 108 1329 q 68 1424 68 1368 q 107 1520 68 1480 q 203 1560 147 1560 q 300 1520 237 1560 l 707 1249 q 746 1153 746 1209 q 706 1057 746 1097 q 610 1017 667 1017 q 515 1057 576 1017 l 108 1329 m 119 119 q 59 178 119 119 q 0 407 0 237 l 0 814 q 40 910 0 870 q 136 949 79 949 q 232 910 192 949 q 271 814 271 870 l 271 407 q 311 311 271 351 q 407 271 351 271 q 503 311 463 271 q 543 407 543 351 l 543 814 q 582 910 543 870 q 678 949 622 949 q 774 910 734 949 q 814 814 814 870 l 814 407 q 695 119 814 238 q 407 0 576 0 q 119 119 237 0 z "},"ú":{"ha":949,"x_min":0,"x_max":814,"o":"m 300 1057 q 203 1017 237 1017 q 107 1057 147 1017 q 68 1153 68 1097 q 108 1249 68 1209 l 515 1520 q 610 1560 576 1560 q 706 1520 667 1560 q 746 1424 746 1480 q 707 1329 746 1368 l 300 1057 m 119 119 q 59 178 119 119 q 0 407 0 237 l 0 814 q 40 910 0 870 q 136 949 79 949 q 232 910 192 949 q 271 814 271 870 l 271 407 q 311 311 271 351 q 407 271 351 271 q 503 311 463 271 q 543 407 543 351 l 543 814 q 582 910 543 870 q 678 949 622 949 q 774 910 734 949 q 814 814 814 870 l 814 407 q 695 119 814 238 q 407 0 576 0 q 119 119 237 0 z "},"û":{"ha":949,"x_min":-34,"x_max":848,"o":"m 408 1243 l 198 1057 q 102 1017 158 1017 q 6 1057 45 1017 q -34 1153 -34 1097 q 6 1249 -34 1209 l 311 1520 q 407 1560 351 1560 q 503 1520 463 1560 l 808 1249 q 848 1153 848 1209 q 808 1057 848 1097 q 712 1017 768 1017 q 616 1057 656 1017 l 408 1243 m 119 119 q 59 178 119 119 q 0 407 0 237 l 0 814 q 40 910 0 870 q 136 949 79 949 q 232 910 192 949 q 271 814 271 870 l 271 407 q 311 311 271 351 q 407 271 351 271 q 503 311 463 271 q 543 407 543 351 l 543 814 q 582 910 543 870 q 678 949 622 949 q 774 910 734 949 q 814 814 814 870 l 814 407 q 695 119 814 238 q 407 0 576 0 q 119 119 237 0 z "},"ü":{"ha":949,"x_min":0,"x_max":814,"o":"m 203 1085 q 107 1125 147 1085 q 68 1221 68 1164 q 107 1317 68 1277 q 203 1356 147 1356 q 299 1317 260 1356 q 339 1221 339 1277 q 299 1125 339 1164 q 203 1085 260 1085 m 610 1085 q 514 1125 554 1085 q 475 1221 475 1164 q 514 1317 475 1277 q 610 1356 554 1356 q 706 1317 667 1356 q 746 1221 746 1277 q 706 1125 746 1164 q 610 1085 667 1085 m 119 119 q 59 178 119 119 q 0 407 0 237 l 0 814 q 40 910 0 870 q 136 949 79 949 q 232 910 192 949 q 271 814 271 870 l 271 407 q 311 311 271 351 q 407 271 351 271 q 503 311 463 271 q 543 407 543 351 l 543 814 q 582 910 543 870 q 678 949 622 949 q 774 910 734 949 q 814 814 814 870 l 814 407 q 695 119 814 238 q 407 0 576 0 q 119 119 237 0 z "},"ý":{"ha":949,"x_min":0,"x_max":814,"o":"m 300 1057 q 203 1017 237 1017 q 107 1057 147 1017 q 68 1153 68 1097 q 108 1249 68 1209 l 515 1520 q 610 1560 576 1560 q 706 1520 667 1560 q 746 1424 746 1480 q 707 1329 746 1368 l 300 1057 m 814 814 q 797 729 814 758 l 356 -339 l 355 -339 q 334 -367 347 -354 q 237 -407 294 -407 q 141 -367 181 -407 q 102 -271 102 -328 q 119 -203 102 -234 l 119 -203 l 260 145 l 17 746 q 0 814 7 777 q 40 910 0 870 q 136 949 79 949 q 232 910 192 949 q 271 831 258 876 l 271 831 l 407 509 l 437 581 l 543 831 l 543 831 q 583 910 555 876 q 678 949 622 949 q 774 910 734 949 q 814 814 814 870 z "},"þ":{"ha":1085,"x_min":0,"x_max":949,"o":"m 475 271 q 618 331 559 271 q 678 475 678 391 q 618 618 678 559 q 475 678 559 678 q 331 618 391 678 q 271 475 271 559 q 331 331 271 391 q 475 271 391 271 m 0 949 q 40 1045 0 1006 q 136 1085 79 1085 q 232 1045 192 1085 q 271 949 271 1006 l 271 905 q 475 949 363 949 q 810 810 671 949 q 949 475 949 671 q 810 139 949 278 q 475 0 671 0 q 271 44 363 0 l 271 -271 q 232 -367 271 -328 q 136 -407 192 -407 q 40 -367 79 -407 q 0 -271 0 -328 l 0 949 z "},"ÿ":{"ha":949,"x_min":0,"x_max":814,"o":"m 203 1085 q 107 1125 147 1085 q 68 1221 68 1164 q 107 1317 68 1277 q 203 1356 147 1356 q 299 1317 260 1356 q 339 1221 339 1277 q 299 1125 339 1164 q 203 1085 260 1085 m 610 1085 q 514 1125 554 1085 q 475 1221 475 1164 q 514 1317 475 1277 q 610 1356 554 1356 q 706 1317 667 1356 q 746 1221 746 1277 q 706 1125 746 1164 q 610 1085 667 1085 m 814 814 q 797 729 814 758 l 356 -339 l 355 -339 q 334 -367 347 -354 q 237 -407 294 -407 q 141 -367 181 -407 q 102 -271 102 -328 q 119 -203 102 -234 l 119 -203 l 260 145 l 17 746 q 0 814 7 777 q 40 910 0 870 q 136 949 79 949 q 232 910 192 949 q 271 831 258 876 l 271 831 l 407 509 l 437 581 l 543 831 l 543 831 q 583 910 555 876 q 678 949 622 949 q 774 910 734 949 q 814 814 814 870 z "},"ı":{"ha":407,"x_min":0,"x_max":271,"o":"m 271 136 q 232 40 271 79 q 136 0 192 0 q 40 40 79 0 q 0 136 0 79 l 0 814 q 40 910 0 870 q 136 949 79 949 q 232 910 192 949 q 271 814 271 870 l 271 136 z "},"ˆ":{"ha":1017,"x_min":0,"x_max":882,"o":"m 441 1379 l 232 1193 q 136 1153 192 1153 q 40 1193 79 1153 q 0 1289 0 1232 q 40 1385 0 1345 l 345 1656 q 441 1695 385 1695 q 537 1656 497 1695 l 842 1385 q 882 1289 882 1345 q 842 1193 882 1232 q 746 1153 802 1153 q 650 1193 690 1153 l 441 1379 z "},"ˇ":{"ha":1017,"x_min":0,"x_max":882,"o":"m 650 1655 q 746 1695 690 1695 q 842 1656 802 1695 q 882 1560 882 1616 q 842 1463 882 1503 l 537 1192 q 441 1153 497 1153 q 345 1192 385 1153 l 40 1463 q 0 1560 0 1503 q 40 1656 0 1616 q 136 1695 79 1695 q 232 1655 192 1695 l 441 1470 l 650 1655 z "},"ˉ":{"ha":1119,"x_min":0,"x_max":1017,"o":"m 136 0 q 0 136 0 0 l 0 882 q 136 1017 0 1017 l 882 1017 q 1017 882 1017 1017 l 1017 136 q 882 0 1017 0 l 136 0 m 882 17 q 1000 136 1000 17 l 1000 882 q 882 1000 1000 1000 l 136 1000 q 17 882 18 1000 l 17 136 q 136 17 18 17 l 882 17 z "},"˘":{"ha":1119,"x_min":0,"x_max":1017,"o":"m 136 0 q 0 136 0 0 l 0 882 q 136 1017 0 1017 l 882 1017 q 1017 882 1017 1017 l 1017 136 q 882 0 1017 0 l 136 0 m 882 17 q 1000 136 1000 17 l 1000 882 q 882 1000 1000 1000 l 136 1000 q 17 882 18 1000 l 17 136 q 136 17 18 17 l 882 17 z "},"˙":{"ha":407,"x_min":0,"x_max":271,"o":"m 136 1221 q 40 1260 79 1221 q 0 1356 0 1300 q 40 1452 0 1413 q 136 1492 79 1492 q 232 1452 192 1492 q 271 1356 271 1413 q 232 1260 271 1300 q 136 1221 192 1221 z "},"˚":{"ha":407,"x_min":0,"x_max":271,"o":"m 136 1221 q 40 1260 79 1221 q 0 1356 0 1300 q 40 1452 0 1413 q 136 1492 79 1492 q 232 1452 192 1492 q 271 1356 271 1413 q 232 1260 271 1300 q 136 1221 192 1221 z "},"˛":{"ha":678,"x_min":0,"x_max":543,"o":"m 407 -136 q 503 -175 463 -136 q 543 -271 543 -215 q 503 -367 543 -328 q 407 -407 463 -407 q 119 -288 238 -407 q 0 0 0 -169 q 40 96 0 56 q 136 136 79 136 q 232 96 192 136 q 271 0 271 56 q 311 -96 271 -56 q 407 -136 351 -136 z "},"˜":{"ha":1153,"x_min":0,"x_max":1017,"o":"m 746 1492 q 786 1588 746 1548 q 882 1628 825 1628 q 978 1588 938 1628 q 1017 1492 1017 1548 q 918 1252 1017 1352 q 678 1153 819 1153 q 458 1255 526 1153 q 387 1336 407 1316 q 339 1356 367 1356 q 291 1336 311 1356 q 271 1289 271 1316 q 232 1193 271 1232 q 136 1153 192 1153 q 40 1193 79 1153 q 0 1289 0 1232 q 99 1528 0 1429 q 339 1628 199 1628 q 559 1526 492 1628 q 630 1444 610 1464 q 678 1424 650 1424 q 726 1444 706 1424 q 746 1492 746 1464 z "},"˝":{"ha":694,"x_min":147,"x_max":547,"o":"m 147 732 l 245 917 q 276 960 261 947 q 307 972 290 972 q 340 959 326 972 q 353 927 353 945 q 346 903 353 916 q 326 876 339 890 l 186 732 l 147 732 m 340 732 l 438 917 q 469 960 454 947 q 500 972 484 972 q 533 959 519 972 q 547 927 547 945 q 539 903 547 916 q 519 876 532 890 l 380 732 l 340 732 z "},"–":{"ha":949,"x_min":0,"x_max":814,"o":"m 678 678 q 774 638 734 678 q 814 543 814 599 q 774 447 814 486 q 678 407 734 407 l 136 407 q 40 447 79 407 q 0 543 0 486 q 40 638 0 599 q 136 678 79 678 l 678 678 z "},"—":{"ha":1085,"x_min":0,"x_max":949,"o":"m 814 678 q 910 638 870 678 q 949 543 949 599 q 910 447 949 486 q 814 407 870 407 l 136 407 q 40 447 79 407 q 0 543 0 486 q 40 638 0 599 q 136 678 79 678 l 814 678 z "},"‘":{"ha":407,"x_min":0,"x_max":271,"o":"m 0 949 q 40 1045 0 1006 q 136 1085 79 1085 q 232 1045 192 1085 q 271 949 271 1006 l 271 678 q 232 582 271 622 q 136 543 192 543 q 40 582 79 543 q 0 678 0 622 l 0 949 z "},"’":{"ha":407,"x_min":0,"x_max":271,"o":"m 0 949 q 40 1045 0 1006 q 136 1085 79 1085 q 232 1045 192 1085 q 271 949 271 1006 l 271 678 q 232 582 271 622 q 136 543 192 543 q 40 582 79 543 q 0 678 0 622 l 0 949 z "},"‚":{"ha":407,"x_min":0,"x_max":271,"o":"m 0 136 q 40 232 0 192 q 136 271 79 271 q 232 232 192 271 q 271 136 271 192 l 271 -136 q 232 -232 271 -192 q 136 -271 192 -271 q 40 -232 79 -271 q 0 -136 0 -192 l 0 136 z "},"“":{"ha":814,"x_min":0,"x_max":678,"o":"m 0 949 q 40 1045 0 1006 q 136 1085 79 1085 q 232 1045 192 1085 q 271 949 271 1006 l 271 678 q 232 582 271 622 q 136 543 192 543 q 40 582 79 543 q 0 678 0 622 l 0 949 m 407 949 q 447 1045 407 1006 q 543 1085 486 1085 q 638 1045 599 1085 q 678 949 678 1006 l 678 678 q 638 582 678 622 q 543 543 599 543 q 447 582 486 543 q 407 678 407 622 l 407 949 z "},"”":{"ha":814,"x_min":0,"x_max":678,"o":"m 0 949 q 40 1045 0 1006 q 136 1085 79 1085 q 232 1045 192 1085 q 271 949 271 1006 l 271 678 q 232 582 271 622 q 136 543 192 543 q 40 582 79 543 q 0 678 0 622 l 0 949 m 407 949 q 447 1045 407 1006 q 543 1085 486 1085 q 638 1045 599 1085 q 678 949 678 1006 l 678 678 q 638 582 678 622 q 543 543 599 543 q 447 582 486 543 q 407 678 407 622 l 407 949 z "},"„":{"ha":814,"x_min":0,"x_max":678,"o":"m 0 136 q 40 232 0 192 q 136 271 79 271 q 232 232 192 271 q 271 136 271 192 l 271 -136 q 232 -232 271 -192 q 136 -271 192 -271 q 40 -232 79 -271 q 0 -136 0 -192 l 0 136 m 407 136 q 447 232 407 192 q 543 271 486 271 q 638 232 599 271 q 678 136 678 192 l 678 -136 q 638 -232 678 -192 q 543 -271 599 -271 q 447 -232 486 -271 q 407 -136 407 -192 l 407 136 z "},"†":{"ha":688,"x_min":48,"x_max":640,"o":"m 330 693 q 293 814 324 759 q 254 901 254 882 q 279 955 254 935 q 344 975 303 975 q 408 956 382 975 q 433 907 433 937 q 396 814 433 886 q 359 693 365 757 q 479 730 424 699 q 566 768 547 768 q 620 744 600 768 q 640 679 640 720 q 622 615 640 640 q 572 589 603 589 q 480 627 551 589 q 359 665 422 658 q 433 477 364 546 q 357 -183 361 165 l 332 -183 q 254 477 328 165 q 330 665 323 546 q 209 628 264 659 q 121 589 140 589 q 68 614 88 589 q 48 679 48 638 q 67 743 48 718 q 115 768 85 768 q 208 730 137 768 q 330 693 266 699 z "},"‡":{"ha":688,"x_min":47,"x_max":640,"o":"m 358 126 q 479 165 422 134 q 572 202 550 202 q 621 177 602 202 q 640 113 640 151 q 619 47 640 72 q 566 23 599 23 q 478 62 547 23 q 358 98 423 93 q 395 -23 364 35 q 433 -116 433 -94 q 407 -164 433 -146 q 343 -183 382 -183 q 278 -163 302 -183 q 254 -110 254 -143 q 292 -22 254 -91 q 329 98 323 33 q 208 61 265 92 q 115 23 136 23 q 66 48 85 23 q 47 113 47 74 q 67 178 47 153 q 121 202 87 202 q 208 163 140 202 q 329 126 264 133 q 254 396 323 279 q 329 665 323 512 q 208 628 264 659 q 121 589 140 589 q 67 614 87 589 q 47 679 47 638 q 66 743 47 718 q 115 768 85 768 q 208 730 136 768 q 329 693 265 699 q 292 814 323 759 q 254 901 254 882 q 278 955 254 935 q 343 975 302 975 q 407 956 382 975 q 433 907 433 937 q 395 814 433 886 q 358 693 364 757 q 478 730 423 699 q 566 768 547 768 q 619 744 599 768 q 640 679 640 720 q 621 615 640 640 q 572 589 602 589 q 479 627 550 589 q 358 665 422 658 q 433 396 363 512 q 358 126 363 279 z "},"•":{"ha":694,"x_min":146,"x_max":548,"o":"m 146 487 q 205 629 146 570 q 348 687 264 687 q 489 628 431 687 q 548 487 548 570 q 489 345 548 404 q 347 286 429 286 q 205 345 263 286 q 146 487 146 404 z "},"…":{"ha":1221,"x_min":0,"x_max":1085,"o":"m 136 0 q 40 40 79 0 q 0 136 0 79 q 40 232 0 192 q 136 271 79 271 q 232 232 192 271 q 271 136 271 192 q 232 40 271 79 q 136 0 192 0 m 543 0 q 447 40 486 0 q 407 136 407 79 q 447 232 407 192 q 543 271 486 271 q 638 232 599 271 q 678 136 678 192 q 638 40 678 79 q 543 0 599 0 m 949 0 q 853 40 893 0 q 814 136 814 79 q 853 232 814 192 q 949 271 893 271 q 1045 232 1006 271 q 1085 136 1085 192 q 1045 40 1085 79 q 949 0 1006 0 z "},"‹":{"ha":627,"x_min":9,"x_max":559,"o":"m 321 475 l 520 232 q 559 136 559 192 q 520 40 559 79 q 424 0 480 0 q 328 40 368 0 l 34 407 q 9 475 9 441 q 34 543 9 509 l 328 910 q 424 949 368 949 q 520 910 480 949 q 559 814 559 870 q 520 718 559 758 l 321 475 z "},"›":{"ha":627,"x_min":9,"x_max":560,"o":"m 48 718 q 9 814 9 758 q 48 910 9 870 q 144 949 88 949 q 240 910 201 949 l 534 543 q 560 475 560 509 q 534 407 560 441 l 240 40 q 144 0 201 0 q 48 40 88 0 q 9 136 9 79 q 48 232 9 192 l 247 475 l 48 718 z "},"⁄":{"ha":949,"x_min":0,"x_max":814,"o":"m 17 203 l 559 1017 l 560 1017 q 582 1046 569 1032 q 678 1085 622 1085 q 774 1045 734 1085 q 814 949 814 1006 q 797 865 814 893 l 254 68 l 254 68 q 232 40 245 53 q 136 0 192 0 q 40 40 79 0 q 0 136 0 79 q 18 203 0 173 l 17 203 z "},"∕":{"ha":949,"x_min":0,"x_max":814,"o":"m 17 203 l 559 1017 l 560 1017 q 582 1046 569 1032 q 678 1085 622 1085 q 774 1045 734 1085 q 814 949 814 1006 q 797 865 814 893 l 254 68 l 254 68 q 232 40 245 53 q 136 0 192 0 q 40 40 79 0 q 0 136 0 79 q 18 203 0 173 l 17 203 z "},"₣":{"ha":1085,"x_min":0,"x_max":949,"o":"m 136 407 l 136 949 q 175 1045 136 1006 q 271 1085 215 1085 l 814 1085 q 910 1045 870 1085 q 949 949 949 1006 q 910 853 949 893 q 814 814 870 814 l 407 814 l 407 678 l 678 678 q 774 638 734 678 q 814 543 814 599 q 774 447 814 486 q 678 407 734 407 l 407 407 l 407 136 q 367 40 407 79 q 271 0 328 0 q 175 40 215 0 q 136 136 136 79 q 40 175 79 136 q 0 271 0 215 q 40 367 0 328 q 136 407 79 407 z "},"₤":{"ha":1051,"x_min":0,"x_max":916,"o":"m 780 271 q 876 232 836 271 q 916 136 916 192 q 876 40 916 79 q 780 0 836 0 l 136 0 q 40 40 79 0 q 0 136 0 79 q 40 232 0 192 q 136 271 79 271 l 136 339 q 40 379 79 339 q 0 475 0 418 q 40 571 0 531 q 136 610 79 610 l 136 678 q 255 966 136 847 q 543 1085 374 1085 q 831 966 711 1085 q 884 902 861 935 q 916 814 916 865 q 876 718 916 758 q 780 678 836 678 q 684 718 724 678 l 639 774 q 543 814 599 814 q 447 774 486 814 q 407 678 407 734 l 407 610 l 475 610 q 571 571 531 610 q 610 475 610 531 q 571 379 610 418 q 475 339 531 339 l 407 339 l 407 271 l 780 271 z "},"₧":{"ha":1085,"x_min":0,"x_max":949,"o":"m 610 814 l 407 814 l 407 678 l 610 678 q 658 698 638 678 q 678 746 678 718 q 658 794 678 774 q 610 814 638 814 m 136 407 l 136 949 q 175 1045 136 1006 q 271 1085 215 1085 l 610 1085 q 850 986 751 1085 q 949 746 949 886 q 850 506 949 606 q 610 407 751 407 l 407 407 l 407 136 q 367 40 407 79 q 271 0 328 0 q 175 40 215 0 q 136 136 136 79 q 40 175 79 136 q 0 271 0 215 q 40 367 0 328 q 136 407 79 407 z "},"€":{"ha":1119,"x_min":0,"x_max":983,"o":"m 475 407 q 514 311 475 351 q 610 271 554 271 q 707 311 667 271 l 752 368 q 848 407 791 407 q 944 367 904 407 q 983 271 983 328 q 951 183 983 220 q 899 119 929 150 q 610 0 779 0 q 322 119 441 0 q 203 407 203 238 l 136 407 q 40 447 79 407 q 0 543 0 486 q 40 638 0 599 q 136 678 79 678 l 203 678 q 322 966 203 847 q 610 1085 441 1085 q 899 966 779 1085 q 951 902 929 935 q 983 814 983 865 q 944 718 983 758 q 848 678 904 678 q 752 718 791 678 l 707 774 q 610 814 667 814 q 514 774 554 814 q 475 678 475 734 l 543 678 q 638 638 599 678 q 678 543 678 599 q 638 447 678 486 q 543 407 599 407 l 475 407 z "},"№":{"ha":1153,"x_min":0,"x_max":1017,"o":"m 271 824 l 271 1017 q 291 1065 271 1046 q 339 1085 311 1085 q 387 1065 368 1085 q 407 1017 407 1046 l 407 610 q 387 563 407 583 q 339 543 368 543 q 292 563 311 543 q 280 576 285 569 l 136 804 l 136 610 q 116 563 136 583 q 68 543 96 543 q 20 563 40 543 q 0 610 0 583 l 0 1017 q 20 1065 0 1046 q 68 1085 40 1085 q 116 1065 96 1085 q 127 1051 123 1059 l 127 1051 l 271 824 m 746 526 q 554 605 634 526 q 475 797 475 685 q 554 989 475 909 q 746 1068 634 1068 q 938 989 859 1068 q 1017 797 1017 909 q 938 605 1017 685 q 746 526 859 526 m 746 661 q 842 701 802 661 q 882 797 882 741 q 842 893 882 853 q 746 932 802 932 q 650 893 690 932 q 610 797 610 853 q 650 701 610 741 q 746 661 690 661 z "},"™":{"ha":1136,"x_min":0,"x_max":1000,"o":"m 136 949 l 68 949 q 20 969 40 949 q 0 1017 0 989 q 20 1065 0 1046 q 68 1085 40 1085 l 339 1085 q 387 1065 368 1085 q 407 1017 407 1046 q 387 969 407 989 q 339 949 368 949 l 271 949 l 271 610 q 252 563 271 583 q 203 543 232 543 q 156 563 176 543 q 136 610 136 583 l 136 949 m 695 823 l 763 1026 q 783 1065 770 1048 q 831 1085 803 1085 q 879 1065 859 1085 q 899 1026 892 1048 l 992 644 q 1000 610 997 629 q 981 563 1000 583 q 932 543 961 543 q 884 562 905 543 q 865 602 871 579 l 865 602 l 823 780 l 763 602 q 762 601 763 602 q 743 562 760 579 q 695 543 724 543 q 646 564 667 543 q 628 601 631 580 l 628 602 l 627 602 l 568 780 l 526 602 q 506 562 519 579 q 458 543 486 543 q 410 563 430 543 q 390 610 390 583 q 399 644 393 629 l 492 1026 q 511 1065 498 1048 q 559 1085 532 1085 q 608 1065 588 1085 q 627 1026 621 1048 l 695 823 z "},"∂":{"ha":1119,"x_min":0,"x_max":1017,"o":"m 136 0 q 0 136 0 0 l 0 882 q 136 1017 0 1017 l 882 1017 q 1017 882 1017 1017 l 1017 136 q 882 0 1017 0 l 136 0 m 882 17 q 1000 136 1000 17 l 1000 882 q 882 1000 1000 1000 l 136 1000 q 17 882 18 1000 l 17 136 q 136 17 18 17 l 882 17 z "},"∆":{"ha":1119,"x_min":0,"x_max":1017,"o":"m 136 0 q 0 136 0 0 l 0 882 q 136 1017 0 1017 l 882 1017 q 1017 882 1017 1017 l 1017 136 q 882 0 1017 0 l 136 0 m 882 17 q 1000 136 1000 17 l 1000 882 q 882 1000 1000 1000 l 136 1000 q 17 882 18 1000 l 17 136 q 136 17 18 17 l 882 17 z "},"∏":{"ha":1119,"x_min":0,"x_max":1017,"o":"m 136 0 q 0 136 0 0 l 0 882 q 136 1017 0 1017 l 882 1017 q 1017 882 1017 1017 l 1017 136 q 882 0 1017 0 l 136 0 m 882 17 q 1000 136 1000 17 l 1000 882 q 882 1000 1000 1000 l 136 1000 q 17 882 18 1000 l 17 136 q 136 17 18 17 l 882 17 z "},"∑":{"ha":1119,"x_min":0,"x_max":1017,"o":"m 136 0 q 0 136 0 0 l 0 882 q 136 1017 0 1017 l 882 1017 q 1017 882 1017 1017 l 1017 136 q 882 0 1017 0 l 136 0 m 882 17 q 1000 136 1000 17 l 1000 882 q 882 1000 1000 1000 l 136 1000 q 17 882 18 1000 l 17 136 q 136 17 18 17 l 882 17 z "},"−":{"ha":688,"x_min":59,"x_max":629,"o":"m 59 439 l 59 534 l 628 534 l 629 533 l 629 439 l 59 439 z "},"√":{"ha":1119,"x_min":0,"x_max":1017,"o":"m 136 0 q 0 136 0 0 l 0 882 q 136 1017 0 1017 l 882 1017 q 1017 882 1017 1017 l 1017 136 q 882 0 1017 0 l 136 0 m 882 17 q 1000 136 1000 17 l 1000 882 q 882 1000 1000 1000 l 136 1000 q 17 882 18 1000 l 17 136 q 136 17 18 17 l 882 17 z "},"∞":{"ha":1119,"x_min":0,"x_max":1017,"o":"m 136 0 q 0 136 0 0 l 0 882 q 136 1017 0 1017 l 882 1017 q 1017 882 1017 1017 l 1017 136 q 882 0 1017 0 l 136 0 m 882 17 q 1000 136 1000 17 l 1000 882 q 882 1000 1000 1000 l 136 1000 q 17 882 18 1000 l 17 136 q 136 17 18 17 l 882 17 z "},"∫":{"ha":1119,"x_min":0,"x_max":1017,"o":"m 136 0 q 0 136 0 0 l 0 882 q 136 1017 0 1017 l 882 1017 q 1017 882 1017 1017 l 1017 136 q 882 0 1017 0 l 136 0 m 882 17 q 1000 136 1000 17 l 1000 882 q 882 1000 1000 1000 l 136 1000 q 17 882 18 1000 l 17 136 q 136 17 18 17 l 882 17 z "},"≈":{"ha":1119,"x_min":0,"x_max":1017,"o":"m 136 0 q 0 136 0 0 l 0 882 q 136 1017 0 1017 l 882 1017 q 1017 882 1017 1017 l 1017 136 q 882 0 1017 0 l 136 0 m 882 17 q 1000 136 1000 17 l 1000 882 q 882 1000 1000 1000 l 136 1000 q 17 882 18 1000 l 17 136 q 136 17 18 17 l 882 17 z "},"≤":{"ha":1119,"x_min":0,"x_max":1017,"o":"m 136 0 q 0 136 0 0 l 0 882 q 136 1017 0 1017 l 882 1017 q 1017 882 1017 1017 l 1017 136 q 882 0 1017 0 l 136 0 m 882 17 q 1000 136 1000 17 l 1000 882 q 882 1000 1000 1000 l 136 1000 q 17 882 18 1000 l 17 136 q 136 17 18 17 l 882 17 z "},"≥":{"ha":1119,"x_min":0,"x_max":1017,"o":"m 136 0 q 0 136 0 0 l 0 882 q 136 1017 0 1017 l 882 1017 q 1017 882 1017 1017 l 1017 136 q 882 0 1017 0 l 136 0 m 882 17 q 1000 136 1000 17 l 1000 882 q 882 1000 1000 1000 l 136 1000 q 17 882 18 1000 l 17 136 q 136 17 18 17 l 882 17 z "},"":{"ha":728,"x_min":0,"x_max":0,"o":""},"ﬁ":{"ha":728,"x_min":0,"x_max":0,"o":""},"":{"ha":733,"x_min":0,"x_max":0,"o":""},"ﬂ":{"ha":733,"x_min":0,"x_max":0,"o":""}}}
